<svg xmlns="http://www.w3.org/2000/svg" viewBox="0 0 21 21">
    <path d="M10.2126 8.02517C10.2126 6.79977 10.621 6.43936 11.6301 6.43936C12.6392 6.43936 13.0476 6.79977 13.0476 8.02517C13.0476 9.20252 12.6392 9.61098 11.6301 9.61098C10.621 9.63501 10.2126 9.22654 10.2126 8.02517ZM11.6301 11.3169C10.4528 11.3169 10.0444 11.8455 10.0444 12.9989C10.0444 14.1522 10.4528 14.6087 11.6301 14.6087C12.8073 14.6087 13.2158 14.1522 13.2158 12.9989C13.2158 11.8455 12.7833 11.3169 11.6301 11.3169ZM19.3663 9.56293V8.69794C19.3663 8.0492 19.2702 7.73684 18.7176 7.73684H18.165C17.6124 7.73684 17.5163 8.07323 17.5163 8.69794V9.56293H16.6514C16.0027 9.56293 15.6904 9.65904 15.6904 10.2117V10.7883C15.6904 11.341 16.0267 11.4371 16.6514 11.4371H17.5403V12.3021C17.5403 12.9508 17.6364 13.2632 18.189 13.2632H18.7416C19.2942 13.2632 19.3903 12.9268 19.3903 12.3021V11.4371H20.6156C20.8558 11.4371 20.976 11.5572 21 11.7975V14.5847C21 15.2574 20.8078 15.762 20.3273 16.2185L16.243 20.3032C15.7625 20.7838 15.2339 21 14.5852 21H6.41658C5.7679 21 5.23934 20.7838 4.75883 20.3032L0.67451 16.2185C0.194002 15.738 -0.0222265 15.2574 0.00179891 14.5847V6.51144C0.00179891 5.83867 0.218028 5.26201 0.722561 4.75744L4.85493 0.552632C5.28739 0.120137 5.81595 0 6.41658 0H14.5612C15.1618 0 15.6904 0.120137 16.1228 0.552632L20.2792 4.75744C20.7597 5.26201 21 5.83867 21 6.51144V9.13043C21 9.39474 20.8799 9.5389 20.6156 9.5389H19.3663V9.56293ZM6.80099 5.5984C6.80099 5.06979 6.46463 4.94966 5.83997 4.94966H4.18222C3.53353 4.94966 3.2212 5.06979 3.2212 5.5984V6.19908C3.2212 6.72769 3.55756 6.84783 4.18222 6.84783H4.56663C4.80688 6.84783 4.90298 6.96796 4.90298 7.3524V15.2334C4.90298 15.8822 5.02311 16.1945 5.55167 16.1945H6.17633C6.70489 16.1945 6.82501 15.8581 6.82501 15.2334V5.5984H6.80099ZM15.0898 13.2632C15.0898 11.8936 14.9936 10.8604 13.7684 10.3799C14.8014 9.63501 14.8014 8.86613 14.8014 8.24142V7.6167C14.6813 5.55034 14.0086 4.75744 11.6061 4.75744C9.20353 4.75744 8.53082 5.55034 8.41069 7.6167V8.24142C8.41069 8.86613 8.43472 9.63501 9.44378 10.3799C8.21849 10.8604 8.12239 11.8936 8.12239 13.2632C8.12239 15.2815 8.84315 16.2906 11.582 16.3387C14.369 16.2906 15.0898 15.2815 15.0898 13.2632Z"/>
</svg>