<svg xmlns="http://www.w3.org/2000/svg" viewBox="0 0 22 22" fill="none">
        <path d="M11.5471 19.3024L11.547 19.3024C11.3439 19.4281 11.16 19.5388 10.9994 19.6337C10.8414 19.5409 10.6611 19.4329 10.4622 19.3104C9.68008 18.8287 8.61898 18.1287 7.503 17.2568L7.50299 17.2568C5.21441 15.4687 2.93027 13.137 2.09806 10.6464C1.07751 7.58066 2.32373 4.41589 5.30064 3.4935L5.30064 3.49351L5.30291 3.4928C6.94109 2.9849 8.75345 3.2884 10.1055 4.26669C10.6451 4.65709 11.379 4.65245 11.9135 4.25495C13.1613 3.32704 15.0507 2.98744 16.6921 3.49383C19.6714 4.4176 20.9224 7.58499 19.9034 10.6476C19.9017 10.6528 19.9 10.658 19.8984 10.6633C19.0952 13.1086 16.8211 15.4337 14.5225 17.232L14.5225 17.2321C13.4021 18.1087 12.3346 18.8153 11.5471 19.3024Z" stroke="var(--color)" stroke-width="1.5" stroke-linecap="round" stroke-linejoin="round"/>
</svg>