<svg xmlns="http://www.w3.org/2000/svg" viewBox="0 0 22 22" fill="none">
    <path fill-rule="evenodd" clip-rule="evenodd" d="M6.1543 19.4316C6.4553 19.4316 6.6983 19.6756 6.6983 19.9756C6.6983 20.2766 6.4553 20.5206 6.1543 20.5206C5.8533 20.5206 5.6103 20.2766 5.6103 19.9756C5.6103 19.6756 5.8533 19.4316 6.1543 19.4316Z" fill="black"/>
    <path fill-rule="evenodd" clip-rule="evenodd" d="M17.4346 19.4316C17.7356 19.4316 17.9796 19.6756 17.9796 19.9756C17.9796 20.2766 17.7356 20.5206 17.4346 20.5206C17.1336 20.5206 16.8906 20.2766 16.8906 19.9756C16.8906 19.6756 17.1336 19.4316 17.4346 19.4316Z" fill="black"/>
    <path d="M1.75 2.479L3.83 2.839L4.793 14.312C4.87 15.249 5.653 15.968 6.593 15.965H17.502C18.399 15.967 19.16 15.307 19.287 14.419L20.236 7.861C20.342 7.128 19.833 6.448 19.101 6.342C19.037 6.333 4.164 6.328 4.164 6.328M13.125 10.0239H15.898M6.1543 19.4316C6.4553 19.4316 6.6983 19.6756 6.6983 19.9756C6.6983 20.2766 6.4553 20.5206 6.1543 20.5206C5.8533 20.5206 5.6103 20.2766 5.6103 19.9756C5.6103 19.6756 5.8533 19.4316 6.1543 19.4316ZM17.4346 19.4316C17.7356 19.4316 17.9796 19.6756 17.9796 19.9756C17.9796 20.2766 17.7356 20.5206 17.4346 20.5206C17.1336 20.5206 16.8906 20.2766 16.8906 19.9756C16.8906 19.6756 17.1336 19.4316 17.4346 19.4316Z" stroke="var(--color)" stroke-width="1.5" stroke-linecap="round" stroke-linejoin="round"/>
</svg>