<svg xmlns="http://www.w3.org/2000/svg" viewBox="0 0 20 20">
    <path d="M9.15278 8.33333C7.74907 6.36089 7.74907 3.16292 9.15278 1.19048L10 0L10.8472 1.19048C12.2509 3.16292 12.2509 6.36089 10.8472 8.33333L10 9.52381L9.15278 8.33333Z" fill="var(--color)"/>
    <path d="M1.67817 15.7662C3.63023 16.6846 6.1822 16.0626 7.37817 14.3769L8.1 13.3595L6.92183 12.8052C4.96977 11.8868 2.41779 12.5088 1.22183 14.1945L0.5 15.2119L1.67817 15.7662Z" fill="var(--color)"/>
    <path d="M18.3218 15.7662C16.3698 16.6846 13.8178 16.0626 12.6218 14.3769L11.9 13.3595L13.0782 12.8052C15.0302 11.8868 17.5822 12.5088 18.7782 14.1945L19.5 15.2119L18.3218 15.7662Z" fill="var(--color)"/>
    <path d="M12.878 19.6849C11.618 19.1627 10.7695 17.5637 10.9828 16.1134L11.1115 15.2381L11.872 15.5532C13.132 16.0754 13.9805 17.6744 13.7672 19.1247L13.6385 20L12.878 19.6849Z" fill="var(--color)"/>
    <path d="M7.122 19.6849C8.38196 19.1627 9.23046 17.5637 9.01718 16.1134L8.88845 15.2381L8.128 15.5532C6.86804 16.0754 6.01954 17.6744 6.23282 19.1247L6.36155 20L7.122 19.6849Z" fill="var(--color)"/>
    <path d="M17.0252 5.84056C14.4987 6.04978 12.2657 7.96856 12.0377 10.1263L11.9 11.4286L13.4248 11.3023C15.9513 11.0931 18.1843 9.1743 18.4123 7.01658L18.55 5.71429L17.0252 5.84056Z" fill="var(--color)"/>
    <path d="M2.97484 5.84056C5.50128 6.04978 7.73426 7.96856 7.96234 10.1263L8.1 11.4286L6.57516 11.3023C4.04872 11.0931 1.81573 9.1743 1.58766 7.01658L1.45 5.71429L2.97484 5.84056Z" fill="var(--color)"/>
    <path d="M10.95 12.381C10.95 12.9069 10.5247 13.3333 10 13.3333C9.47533 13.3333 9.05 12.9069 9.05 12.381C9.05 11.855 9.47533 11.4286 10 11.4286C10.5247 11.4286 10.95 11.855 10.95 12.381Z" fill="var(--color)"/>
    <path d="M2.97484 5.84056C5.50128 6.04978 7.73426 7.96856 7.96234 10.1263L8.1 11.4286L6.57516 11.3023C4.04872 11.0931 1.81573 9.1743 1.58766 7.01658L1.45 5.71429L2.97484 5.84056Z" fill="var(--color)"/>
</svg>