<svg xmlns="http://www.w3.org/2000/svg" viewBox="0 0 24 24">
    <path d="M10.0662 7.66002C5.09076 7.66002 1.00005 11.0815 1.00005 15.2872C1.00005 16.9684 1.65214 18.677 2.848 20.0012L1.15929 21.931C0.993127 22.1211 0.952823 22.3911 1.05797 22.6214C1.16247 22.8518 1.39158 22.9997 1.64458 22.9997H10.7108C14.3844 22.9997 19.1324 19.8364 19.1324 15.2872C19.1324 11.0815 15.0417 7.66002 10.0662 7.66002ZM6.15617 16.4686C5.44555 16.4686 4.86715 15.8902 4.86715 15.1796C4.86715 14.469 5.44559 13.8906 6.15617 13.8906C6.86674 13.8906 7.44519 14.469 7.44519 15.1796C7.44523 15.8902 6.86678 16.4686 6.15617 16.4686ZM10.0662 16.4686C9.35562 16.4686 8.77722 15.8902 8.77722 15.1796C8.77722 14.469 9.35566 13.8906 10.0662 13.8906C10.7768 13.8906 11.3553 14.469 11.3553 15.1796C11.3553 15.8902 10.7769 16.4686 10.0662 16.4686ZM13.9763 16.4686C13.2657 16.4686 12.6873 15.8902 12.6873 15.1796C12.6873 14.469 13.2657 13.8906 13.9763 13.8906C14.6869 13.8906 15.2653 14.469 15.2653 15.1796C15.2653 15.8902 14.6869 16.4686 13.9763 16.4686Z" />
    <path d="M22.844 14.1153L21.3265 12.3447C22.4097 11.1225 22.9995 9.63195 22.9995 8.08993C22.9995 4.18068 19.2407 1.00026 14.6208 1.00026C10.4432 1.00026 6.89391 3.60369 6.26721 6.99225C7.43287 6.59617 8.7401 6.37101 10.0662 6.37101C15.7103 6.37101 20.3474 10.3132 20.4152 15.1796H22.355C22.9056 15.1796 23.2012 14.5313 22.844 14.1153Z" />
</svg>