<svg xmlns="http://www.w3.org/2000/svg" viewBox="0 0 519.86 612.72">
    <path fill="var(--color)" d="M189.65 395.14v49.61h95.05v89.99h-95.05v77.98H87.49v-77.98H0v-89.99h87.49v-49.93H0v-89.99h87.49V16.54l7.65-1.86c25.9-6.29 52.57-9.85 79.13-11.7C200.56 1.15 226.94 0 253.29 0c65.98.01 140.64 9.77 195.87 48.83 50.27 35.55 70.69 87.7 70.69 148.32 0 31.34-5.01 63.11-19.27 91.3-13.02 25.75-31.81 46.49-55.95 62.29-26.23 17.17-56.3 27.7-86.86 34.02-36.97 7.66-75.26 10.37-112.96 10.37h-55.16zm.01-301.39v211.03h51.79c24.86 0 50.04-1.39 74.61-5.37 18.49-3 37.42-8.21 53.83-17.46 13.73-7.73 24.48-18.34 32.13-32.11 8.89-15.99 11.43-35.53 11.43-53.56 0-17.31-2.71-35.65-11.71-50.74a88.79 88.79 0 0 0-32.01-31.63c-14.98-8.76-31.64-14.04-48.7-16.96A359.76 359.76 0 0 0 260.07 92c-23.17 0-47.13.09-70.41 1.75z"></path>
</svg>