<svg xmlns="http://www.w3.org/2000/svg" viewBox="0 0 17 20">
    <path d="M8.73976 7.51241L11.6977 8.97445C11.5644 8.45343 11.4016 7.93357 11.428 7.57337C11.4895 6.73579 11.9055 6.0159 12.672 5.56185C14.0891 4.72246 13.9536 2.93204 13.2384 1.39128C13.1348 1.16823 12.8543 0.985683 12.5698 0.968218C11.8755 0.92558 12.1897 1.59407 12.2479 1.96C12.3334 2.49873 12.3179 3.0339 12.1105 3.48977C11.852 4.05788 11.2269 4.18715 10.6469 4.49567C10.0996 4.78677 9.63517 5.1596 9.33169 5.63423C9.08324 6.02276 8.9273 6.44812 8.83264 6.8843C8.78814 7.09116 8.75807 7.30079 8.73976 7.51241Z" fill="var(--color)"/>
    <path d="M13.9793 7.24258C13.8693 7.0001 13.6259 6.84009 13.3548 6.83291C12.1858 6.80201 11.0121 7.08277 9.96794 7.67162L9.94579 7.51459C9.78877 6.40105 9.33274 5.36735 8.64619 4.50601C8.47985 4.29722 8.20389 4.20144 7.93964 4.25861C6.43526 4.58396 4.90956 5.37808 3.61232 6.40516C3.61232 6.40516 3.54781 6.64171 3.44668 6.72708C3.34555 6.81245 3.00566 6.91703 3.00566 6.91703C2.0641 7.76494 1.28331 8.72973 0.780132 9.70379C-1.029 13.2062 0.416689 17.4612 3.99708 19.2309C7.57747 21.0006 11.9368 19.615 13.7459 16.1126C15.0043 13.6766 15.1883 9.9075 13.9793 7.24258Z" fill="var(--color)"/>
    <path d="M12.9897 4.25537C12.7949 4.29878 12.6546 4.46537 12.6472 4.66064C12.6103 5.63709 12.837 8.45601 16.7249 8.1844C16.8882 8.17303 17.0092 8.03081 16.9995 7.86256C16.9395 6.82648 16.477 3.47831 12.9897 4.25537Z" fill="var(--color)"/>
    <path d="M12.7325 1.5645C12.8384 1.7302 12.8165 1.94506 12.6801 2.08781C11.9982 2.80171 9.79463 4.6318 7.25062 1.74287C7.14379 1.62157 7.16161 1.43734 7.29042 1.32548C8.08395 0.636723 10.8374 -1.40279 12.7325 1.5645Z" fill="var(--color)"/>
</svg>