
<svg viewBox="0 0 200 169" xmlns="http://www.w3.org/2000/svg" fill="var(--background)">
  <path d="m 93.136501,10.156882 c 2.2532,-5.3909577 9.750669,-5.3909577 12.003879,0 l 17.84924,42.704917 c 0.95247,2.279178 3.07012,3.829616 5.49307,4.022973 l 46.04533,3.673361 c 5.82841,0.464905 8.16132,7.906713 3.67684,11.729148 l -34.85039,29.706189 c -1.90757,1.62676 -2.74133,4.21593 -2.15157,6.67875 l 10.68736,44.58356 c 1.37263,5.72886 -4.70891,10.31009 -9.67878,7.28874 l -39.73153,-24.14954 c -2.05854,-1.25003 -4.624489,-1.25003 -6.683029,0 l -39.731148,24.14954 c -4.970126,3.02135 -11.052309,-1.55988 -9.678909,-7.28874 l 10.687238,-44.58356 c 0.590154,-2.46282 -0.244518,-5.05199 -2.152089,-6.67875 L 20.072398,72.287281 C 15.588036,68.464846 17.920443,61.023038 23.74872,60.558133 l 46.045448,-3.673361 c 2.423349,-0.193357 4.540338,-1.743795 5.492951,-4.022973 z" stroke="var(--color)" stroke-width="15" />
</svg>
