<svg xmlns="http://www.w3.org/2000/svg" viewBox="0 0 121 121"><path fill="#75B72B" d="M60.5 113.5c-28.9 0-52.3-23.7-52.3-52.8 0-4 .6-8.4 1.1-12.3 5.8-23.9 27.3-41 51.2-41 28.9 0 52.3 23.9 52.3 53.3 0 29.2-23.4 52.8-52.3 52.8zm0-101.7c-22 0-41.7 15.8-47 37.5-.5 3.5-1 7.8-1 11.5 0 26.7 21.5 48.4 48 48.4s48-21.7 48-48.4c0-27-21.5-49-48-49z"/><path fill="#75B72B" d="M60.5 62.9c-.6 0-1.1-.2-1.5-.6-.9-.8-.9-2.2 0-3.1l19.4-19.6c.8-.9 2.2-.9 3.1 0 .9.8.9 2.2 0 3.1L62 62.3c-.4.4-.9.6-1.5.6z"/><path fill="#75B72B" d="M60.5 62.9c-.6 0-1.1-.2-1.5-.6l-13-13c-.8-.9-.8-2.2 0-3.1.9-.9 2.2-.8 3.1 0l13 13.1c.8.9.8 2.2 0 3.1-.5.3-1 .5-1.6.5zM19 62.9h-3.2c-1.2 0-2.2-1-2.2-2.2s1-2.2 2.2-2.2H19c1.2 0 2.2 1 2.2 2.2s-1 2.2-2.2 2.2zM60.5 107.6c-1.2 0-2.2-1-2.2-2.2v-3.3c0-1.2 1-2.2 2.2-2.2s2.2 1 2.2 2.2v3.3c0 1.2-1 2.2-2.2 2.2zM60.5 21.1c-1.2 0-2.2-1-2.2-2.2v-3.3c0-1.2 1-2.2 2.2-2.2s2.2 1 2.2 2.2v3.3c0 1.2-1 2.2-2.2 2.2zM105.3 62.9h-3.8c-1.2 0-2.2-1-2.2-2.2s1-2.2 2.2-2.2h3.8c1.2 0 2.2 1 2.2 2.2s-1 2.2-2.2 2.2z"/><path fill="none" d="M99.3 37.9h-.5M99.3 83.1h-.5"/></svg>