<svg xmlns="http://www.w3.org/2000/svg" viewBox="0 0 121 121"><path fill="#75B72B" d="M60.8 44.7c-1.2 0-2.2-1-2.2-2.2v-2.7c0-1.2 1-2.2 2.2-2.2 1.2 0 2.2 1 2.2 2.2v2.7c-.1 1.3-1 2.2-2.2 2.2zM60.8 25.7c-.7 0-1.5-.4-1.9-1.1L50.8 11c-.6-1-.3-2.4.8-3 1-.6 2.4-.3 3 .8l8.1 13.6c.6 1 .3 2.4-.8 3-.4.2-.7.3-1.1.3zM39.7 40.9c-.8 0-1.5-.4-1.9-1.1L21.7 11c-.6-1-.2-2.4.8-3 1-.6 2.4-.2 3 .8l16.2 28.8c.6 1 .2 2.4-.8 3-.4.2-.8.3-1.2.3z"/><path fill="#75B72B" d="M55.4 34.9c-.4 0-.7-.1-1.1-.3-1-.6-1.4-1.9-.8-3L66.4 8.8c.6-1.1 1.9-1.4 3-.8 1 .6 1.4 1.9.8 3L57.3 33.8c-.4.7-1.2 1.1-1.9 1.1zM81.3 40.9c-.4 0-.7-.1-1.1-.3-1-.6-1.4-1.9-.8-3L96.1 8.8c.6-1 1.9-1.4 3-.8 1 .6 1.4 1.9.8 3L83.2 39.8c-.5.7-1.2 1.1-1.9 1.1z"/><path fill="#75B72B" d="M60.8 113.3c-22.9 0-41.6-18.5-41.6-41.3 0-22.8 18.6-41.3 41.6-41.3 22.6 0 41 18.5 41 41.3 0 22.7-18.4 41.3-41 41.3zm0-78.4c-20.5 0-37.2 16.6-37.2 37s16.7 37 37.2 37c20.2 0 36.7-16.6 36.7-37-.1-20.4-16.5-37-36.7-37z"/><path fill="#75B72B" d="M74.8 49.1c-.4 0-.8-.1-1.1-.3-1-.6-1.4-2-.8-3l1.6-2.7c.6-1 2-1.4 3-.8 1 .6 1.4 2 .8 3L76.7 48c-.5.7-1.2 1.1-1.9 1.1zM85.6 59.4c-.9 0-1.7-.5-2-1.4-.5-1.1.1-2.4 1.2-2.8l2.7-1.1c1.1-.4 2.4.1 2.8 1.2.5 1.1-.1 2.4-1.2 2.8l-2.7 1.1c-.3.2-.6.2-.8.2zM92.1 74.1h-2.7c-1.2 0-2.2-1-2.2-2.2s1-2.2 2.2-2.2h2.7c1.2 0 2.2 1 2.2 2.2s-1 2.2-2.2 2.2zM88.3 89.9c-.3 0-.5 0-.8-.2l-2.7-1.1a2.1 2.1 0 0 1-1.2-2.8c.5-1.1 1.7-1.7 2.8-1.2l2.7 1.1c1.1.4 1.7 1.7 1.2 2.8-.4.9-1.2 1.4-2 1.4zM76.4 101.8c-.7 0-1.5-.4-1.9-1.1L72.9 98c-.6-1-.3-2.4.8-3 1-.6 2.4-.3 3 .8l1.6 2.7c.6 1 .3 2.4-.8 3-.3.3-.7.3-1.1.3zM60.8 106.2c-1.2 0-2.2-1-2.2-2.2v-2.7c0-1.2 1-2.2 2.2-2.2 1.2 0 2.2 1 2.2 2.2v2.7c-.1 1.2-1 2.2-2.2 2.2zM44.6 101.8c-.4 0-.8-.1-1.1-.3-1-.6-1.4-2-.8-3l1.6-2.7c.6-1 1.9-1.4 3-.8 1 .6 1.4 2 .8 3l-1.6 2.7c-.5.8-1.2 1.1-1.9 1.1zM33.3 89.9c-.8 0-1.6-.4-1.9-1.2-.5-1.1-.1-2.4 1-2.9l2.2-1.1c1-.5 2.4-.1 2.9 1s.1 2.4-1 2.9l-2.2 1.1c-.4.1-.7.2-1 .2zM31.6 74.1h-2.7c-1.2 0-2.2-1-2.2-2.2s1-2.2 2.2-2.2h2.7c1.2 0 2.2 1 2.2 2.2s-1 2.2-2.2 2.2zM35.4 59.4c-.3 0-.7-.1-1-.2l-2.2-1.1c-1.1-.5-1.5-1.8-1-2.9.5-1.1 1.9-1.5 2.9-1l2.2 1.1c1.1.5 1.5 1.8 1 2.9-.3.8-1.1 1.2-1.9 1.2zM46.2 49.1c-.7 0-1.5-.4-1.9-1.1l-1.6-2.7c-.6-1-.3-2.4.8-3 1-.6 2.4-.3 3 .8l1.6 2.7c.6 1 .3 2.4-.8 3-.3.2-.7.3-1.1.3zM60.8 44.7c-1.2 0-2.2-1-2.2-2.2v-2.7c0-1.2 1-2.2 2.2-2.2 1.2 0 2.2 1 2.2 2.2v2.7c-.1 1.3-1 2.2-2.2 2.2zM60.8 90.4c-1.2 0-2.2-1-2.2-2.2V52.3c0-1.2 1-2.2 2.2-2.2 1.2 0 2.2 1 2.2 2.2v35.9c-.1 1.3-1 2.2-2.2 2.2z"/><path fill="#75B72B" d="M66.7 90.4H54.8c-1.2 0-2.2-1-2.2-2.2s1-2.2 2.2-2.2h11.9c1.2 0 2.2 1 2.2 2.2s-1 2.2-2.2 2.2zM53.2 64.3c-.8 0-1.6-.4-1.9-1.2-.5-1.1-.1-2.4 1-2.9 2.5-1.2 4.4-3.8 6.6-8.7.5-1.1 1.8-1.6 2.9-1.1 1.1.5 1.6 1.8 1.1 2.9-1.9 4.4-4.3 8.7-8.6 10.9-.4 0-.8.1-1.1.1zM51.6 36c-.7 0-1.5-.4-1.9-1.1L35.7 11c-.6-1-.3-2.4.8-3 1-.6 2.4-.3 3 .8l14 23.9c.6 1 .3 2.4-.8 3-.3.2-.7.3-1.1.3zM70.5 34.4c-.4 0-.7-.1-1.1-.3-1-.6-1.4-1.9-.8-3L81 8.9c.6-1.1 1.9-1.4 3-.8 1 .6 1.4 1.9.8 3L72.4 33.3c-.4.7-1.2 1.1-1.9 1.1z"/></svg>