<svg xmlns="http://www.w3.org/2000/svg" viewBox="0 0 121 121"><path fill="#75B72B" d="M60.5 113.5c-28.9 0-52.3-23.7-52.3-52.8 0-29.4 23.5-53.3 52.3-53.3s52.3 23.9 52.3 53.3c0 29.2-23.4 52.8-52.3 52.8zm0-101.7c-26.5 0-48 22-48 49 0 26.7 21.5 48.4 48 48.4s48-21.7 48-48.4c0-27.5-21.1-49-48-49z"/><path fill="#75B72B" d="M47 84.7c-1.2 0-2.2-1-2.2-2.2V39c0-1.2 1-2.2 2.2-2.2 1.2 0 2.2 1 2.2 2.2v43.5c0 1.2-1 2.2-2.2 2.2z"/><path fill="#75B72B" d="M74 84.7c-.7 0-1.5-.4-1.9-1.1L59.8 62.9H47c-1.2 0-2.2-1-2.2-2.2s1-2.2 2.2-2.2h14c.8 0 1.5.4 1.9 1.1l12.9 21.8c.6 1 .3 2.4-.8 3-.3.2-.6.3-1 .3zM61 41.2H47c-1.2 0-2.2-1-2.2-2.2s1-2.2 2.2-2.2h14c1.2 0 2.2 1 2.2 2.2s-1 2.2-2.2 2.2z"/><path fill="#75B72B" d="M61 62.9v-4.3c4.7 0 8.6-3.9 8.6-8.7s-3.9-8.7-8.6-8.7v-4.3c7.1 0 13 5.9 13 13.1s-5.8 12.9-13 12.9z"/></svg>