<svg viewBox="0 0 121 121" fill="none" xmlns="http://www.w3.org/2000/svg">
<path d="M103 79.5C95.3 79.5 89 71 89 60.5C89 50 95.3 41.5 103 41.5C106.7 41.5 109.5 43.7 112.9 47.7C113.7 48.6 113.5 50 112.6 50.8C111.7 51.6 110.3 51.4 109.5 50.5C107 47.5 105.4 45.9 103 45.9C97.8 45.9 93.3 52.6 93.3 60.6C93.3 68.6 97.7 75.3 103 75.3C106.414 75.3 108.636 73.0018 109.98 70.9183V67H105.5C104.3 67 103.3 66 103.3 64.8C103.3 63.6 104.3 62.6 105.5 62.6H112.1C112.113 62.6 112.125 62.6001 112.137 62.6003C112.152 62.6 112.166 62.5999 112.18 62.5999C113.38 62.5999 114.38 63.5999 114.38 64.7999V71.4C114.4 71.7985 114.312 72.2117 114.1 72.6C111.5 77 107.6 79.5 103 79.5Z" fill="#75B72B"/>
<path fill-rule="evenodd" clip-rule="evenodd" d="M56.7 43.6C56.7 42.4 57.7 41.4 58.9 41.4H71.3C77.4 41.4 82.1 46.2 82.1 52.3C82.1 55.5855 80.472 58.5388 77.9628 60.4513C80.5031 62.4304 82.1 65.5443 82.1 69.1C82.1 74.9 77.2 79.5 71.3 79.5H58.9C57.7 79.5 56.7 78.5 56.7 77.3V43.6ZM61.1 75.1H71.3C74.8 75.1 77.7 72.4 77.7 69.1C77.7 65.7209 75.3646 63.0924 72.2173 62.6619C71.9146 62.6871 71.6087 62.7 71.3 62.7C70.1 62.7 69.1 61.7 69.1 60.5C69.1 60.4832 69.1002 60.4665 69.1006 60.4498C69.1002 60.4332 69.1 60.4167 69.1 60.4C69.1 59.2 70.1 58.2 71.3 58.2C71.6109 58.2 71.9182 58.2125 72.2214 58.2369C75.2947 57.8132 77.7 55.3054 77.7 52.3C77.7 48.6 74.9 45.8 71.3 45.8H61.1V75.1Z" fill="#75B72B"/>
<path d="M37.8 79.5C30.1 79.5 23.8 71 23.8 60.5C23.8 50 30.1 41.5 37.8 41.5C41.5 41.5 45.3 43.7 48.7 47.7C49.5 48.6 49.3 50 48.4 50.8C47.5 51.6 46.1 51.4 45.3 50.5C42.8 47.5 40.2 45.9 37.8 45.9C32.6 45.9 28.1 52.6 28.1 60.6C28.1 68.6 32.5 75.3 37.8 75.3C41.5 75.3 43.8 72.6 45.1 70.4C45.7 69.4 47 69 48.1 69.6C49.1 70.2 49.5 71.5 48.9 72.6C46.3 77 42.4 79.5 37.8 79.5Z" fill="#75B72B"/>
<path d="M51.9 113.3C51.5 113.3 51.2 113.2 50.8 113C43.5 108.9 36.2 104.7 28.9 100.5C21.7 96.3 14.4 92 7.1 88C6.4 87.6 6 86.9 6 86.1V34.9C6 34.1 6.4 33.4 7.1 33C14.4 28.9 21.6 24.7 28.9 20.5C36.2 16.3 43.5 12.1 50.8 8C51.5 7.6 52.3 7.6 52.9 8C65.6871 15.1116 78.2911 22.5473 90.7 30.3C91.7 30.9 92 32.3 91.4 33.3C90.8 34.3 89.4 34.6 88.4 34C74.4 25.3 65.3 20 51.9 12.4C45 16.3 38.1 20.3 31.1 24.3C24.2 28.3 17.3 32.3 10.3 36.2V84.8C17.2 88.7 24.1 92.7 31.1 96.7C38 100.7 44.9 104.7 51.9 108.6C66.1 100.6 75.4 95.1 89.1 86.9C90.1 86.3 91.5 86.6 92.1 87.7C92.7 88.7 92.4 90.1 91.3 90.7C77.2 99.1 67.8 104.7 53 113C52.6 113.2 52.2 113.3 51.9 113.3Z" fill="#75B72B"/>
</svg>
