<svg xmlns="http://www.w3.org/2000/svg" viewBox="0 0 121 121"><path fill="#75B72B" d="M91.3 79.5c-1.2 0-2.2-1-2.2-2.2V43.6c0-1.2 1-2.2 2.2-2.2 1.2 0 2.2 1 2.2 2.2v33.7c-.1 1.3-1.1 2.2-2.2 2.2zM37.8 79.5c-7.7 0-14-8.5-14-19s6.3-19 14-19c3.9 0 7.8 2.5 10.9 6.9.7 1 .5 2.3-.5 3-1 .7-2.4.5-3-.5-2.3-3.3-4.9-5.1-7.4-5.1-5.2 0-9.7 6.7-9.7 14.7s4.4 14.7 9.7 14.7c3.7 0 6-2.7 7.3-4.9.6-1 1.9-1.4 3-.8 1 .6 1.4 1.9.8 3-2.6 4.5-6.5 7-11.1 7zM71.3 79.5c-1.2 0-2.2-1-2.2-2.2s1-2.2 2.2-2.2c3.5 0 6.4-2.7 6.4-6 0-3.7-2.8-6.5-6.4-6.5-1.2 0-2.2-1-2.2-2.2s1-2.2 2.2-2.2c6.1 0 10.8 4.8 10.8 10.9 0 5.8-4.9 10.4-10.8 10.4z"/><path fill="#75B72B" d="M71.3 62.7c-1.2 0-2.2-1-2.2-2.2s1-2.2 2.2-2.2c3.5 0 6.4-2.7 6.4-6 0-3.7-2.8-6.5-6.4-6.5-1.2 0-2.2-1-2.2-2.2 0-1.2 1-2.2 2.2-2.2 6.1 0 10.8 4.8 10.8 10.9 0 5.7-4.9 10.4-10.8 10.4z"/><path fill="#75B72B" d="M71.3 45.8H58.9c-1.2 0-2.2-1-2.2-2.2 0-1.2 1-2.2 2.2-2.2h12.4c1.2 0 2.2 1 2.2 2.2 0 1.2-1 2.2-2.2 2.2zM71.3 79.5H58.9c-1.2 0-2.2-1-2.2-2.2s1-2.2 2.2-2.2h12.4c1.2 0 2.2 1 2.2 2.2s-1 2.2-2.2 2.2z"/><path fill="#75B72B" d="M58.9 79.5c-1.2 0-2.2-1-2.2-2.2V43.6c0-1.2 1-2.2 2.2-2.2 1.2 0 2.2 1 2.2 2.2v33.7c0 1.3-1 2.2-2.2 2.2zM112.8 79.5c-1.2 0-2.2-1-2.2-2.2V43.6c0-1.2 1-2.2 2.2-2.2 1.2 0 2.2 1 2.2 2.2v33.7c0 1.3-1 2.2-2.2 2.2z"/><path fill="#75B72B" d="M112.8 79.5c-.7 0-1.4-.4-1.8-1L89.4 44.8c-.7-1-.4-2.4.7-3 1-.6 2.4-.4 3 .7l21.6 33.7c.7 1 .4 2.4-.7 3-.4.2-.8.3-1.2.3z"/><path fill="#75B72B" d="M51.9 113.3c-.4 0-.7-.1-1.1-.3-7.3-4.1-14.6-8.3-21.9-12.5C21.7 96.3 14.4 92 7.1 88c-.7-.4-1.1-1.1-1.1-1.9V35.5c0-.8.4-1.5 1.1-1.9C14.4 29.2 21.7 25 29 20.8c7.3-4.2 14.6-8.4 21.8-12.8.7-.4 1.5-.4 2.2 0 6 3.6 11 6.5 15.9 9.3 7 4.1 13.6 7.9 21.9 13 1 .6 1.3 2 .7 3-.6 1-2 1.3-3 .7-8.2-5.1-14.8-8.9-21.8-12.9-4.6-2.6-9.3-5.4-14.8-8.7-6.9 4.1-13.8 8.1-20.8 12.1-6.9 4-13.8 8-20.8 12.1v48.1c6.9 3.9 13.8 7.9 20.8 11.9 6.9 4 13.8 8 20.8 11.9 14.1-7.9 23.4-13.4 37.2-21.7 1.1-.6 2.4-.3 3 .8.6 1 .3 2.4-.8 3-14.2 8.5-23.6 14.1-38.3 22.3-.4.3-.8.4-1.1.4z"/></svg>