<svg xmlns="http://www.w3.org/2000/svg" viewBox="0 0 121 121"><path fill="#75B72B" d="M10.1 112.5c-.6 0-1.1-.2-1.5-.6-.9-.8-.9-2.2 0-3.1l62.6-63.1c.8-.9 2.2-.9 3.1 0 .9.8.9 2.2 0 3.1l-62.6 63.1c-.5.3-1.1.6-1.6.6z"/><path fill="#75B72B" d="M81.3 62.4h-.4c-.9-.2-1.7-.9-1.8-1.8l-2.5-17.4-17.3-2.5c-.9-.1-1.7-.9-1.8-1.8-.2-.9.3-1.9 1.2-2.3l15.8-8-3-17.5c-.2-.9.3-1.9 1.2-2.3.9-.4 1.9-.3 2.5.4l12.4 12.5 15.3-8c.8-.4 1.9-.3 2.5.4.7.7.8 1.7.4 2.5l-7.9 15.5 12.4 12.5c.7.7.8 1.7.4 2.5s-1.3 1.3-2.2 1.2l-17.3-2.5-7.9 15.5c-.5.6-1.2 1.1-2 1.1zM66.8 37.3l12 1.7c1 .1 1.7.9 1.8 1.8L82.3 53 88 42.4c.4-.8 1.4-1.3 2.2-1.2l12.5 1.8-8.9-9c-.7-.7-.8-1.7-.4-2.5l5.5-10.8-10.7 5.6c-.8.4-1.9.3-2.5-.4L77 17.1l2.1 12.3c.2.9-.3 1.9-1.2 2.3l-11.1 5.6zM93.1 104.8h-.4c-.9-.2-1.7-.9-1.8-1.9l-1.4-10.4-10.8-1.9c-.9-.2-1.6-.9-1.8-1.8-.1-.9.3-1.8 1.2-2.3l9.4-4.7-1.4-10.4c-.1-.9.4-1.8 1.2-2.2.8-.4 1.8-.3 2.5.4l7.5 7.5 9.3-5.2c.8-.4 1.9-.3 2.5.3.7.7.9 1.7.5 2.5l-4.7 10 7.5 7.1c.7.7.9 1.7.5 2.5s-1.2 1.4-2.2 1.2l-10.9-1.4-4.7 9.5c-.4.8-1.1 1.2-2 1.2zm-7.2-17.3l5.9 1c.9.2 1.7.9 1.8 1.9l.7 4.9 2.2-4.5c.4-.8 1.3-1.4 2.2-1.2l5.7.8-3.7-3.5c-.7-.6-.9-1.7-.5-2.5l2.5-5.3-4.7 2.6c-.9.5-1.9.3-2.6-.4l-4.1-4.1.7 5.5c.1.9-.3 1.8-1.2 2.2l-4.9 2.6zM31.6 52.1h-.4c-.9-.2-1.6-.9-1.8-1.8L28 40l-10.2-1.4c-.9-.1-1.7-.8-1.8-1.8-.2-.9.3-1.8 1.1-2.3l9.4-5.2-1.9-10.4c-.2-.9.3-1.9 1.1-2.3.8-.4 1.9-.3 2.5.4l7.5 7.6 9.4-4.7c.8-.4 1.8-.3 2.5.4s.8 1.7.4 2.5L43.4 32l7.5 7.6c.7.7.8 1.7.4 2.5s-1.4 1.3-2.3 1.1l-10.3-1.9-5.2 9.5c-.3.8-1.1 1.3-1.9 1.3zM24.9 35l5.4.7c1 .1 1.7.9 1.9 1.9l.7 5.4 2.8-5.1c.5-.8 1.4-1.2 2.3-1.1l5.1.9-3.8-3.7c-.7-.7-.8-1.7-.4-2.5l2.5-5-5 2.5c-.8.4-1.9.3-2.5-.4l-3.7-3.7.9 5.1c.2.9-.3 1.8-1.1 2.3L24.9 35z"/></svg>