<svg xmlns="http://www.w3.org/2000/svg" viewBox="0 0 121 121"><path fill="#75B72B" d="M60.5 82.8C40 82.8 23.3 66 23.3 45.3S40 7.7 60.5 7.7s37.2 16.8 37.2 37.5C97.7 66 81 82.8 60.5 82.8zm0-70.7c-18.1 0-32.9 14.9-32.9 33.2s14.8 33.2 32.9 33.2c18.1 0 32.9-14.9 32.9-33.2S78.6 12.1 60.5 12.1zM60.5 113.3c-1.2 0-2.2-1-2.2-2.2V85c0-1.2 1-2.2 2.2-2.2s2.2 1 2.2 2.2v26.1c0 1.2-1 2.2-2.2 2.2z"/><path fill="#75B72B" d="M73.4 100.2H47.6c-1.2 0-2.2-1-2.2-2.2s1-2.2 2.2-2.2h25.9c1.2 0 2.2 1 2.2 2.2s-1.1 2.2-2.3 2.2z"/></svg>