<svg xmlns="http://www.w3.org/2000/svg" viewBox="0 0 121 121"><path fill="#75B72B" d="M23 30.6c-.3 0-.5 0-.8-.1l-4.3-1.6c-1.1-.4-1.7-1.7-1.3-2.8.4-1.1 1.7-1.6 2.8-1.3l4.3 1.6c1.1.4 1.7 1.7 1.3 2.8-.3.9-1.1 1.4-2 1.4zM21.4 47.4h-4.3c-1.2 0-2.2-1-2.2-2.2 0-1.2 1-2.2 2.2-2.2h4.3c1.2 0 2.2 1 2.2 2.2 0 1.3-1 2.2-2.2 2.2zM20.3 64.3c-.9 0-1.7-.5-2-1.4-.4-1.1.1-2.4 1.3-2.8l4.3-1.6c1.1-.4 2.4.1 2.8 1.3s-.1 2.4-1.3 2.8l-4.3 1.6c-.3.1-.5.1-.8.1zM31.6 18.6c-.6 0-1.2-.3-1.7-.8L26.7 14c-.7-.9-.6-2.3.3-3 .9-.8 2.3-.7 3.1.3l3.2 3.8c.8.9.7 2.3-.3 3.1-.4.2-.9.4-1.4.4zM89.4 19.2c-.6 0-1.1-.2-1.5-.6-.9-.8-.9-2.2 0-3.1l3.2-3.3c.8-.9 2.2-.9 3.1 0 .9.8.9 2.2 0 3.1L91 18.6c-.5.3-1.1.6-1.6.6zM60.2 46.9c-.6 0-1.1-.2-1.5-.6-.9-.8-.9-2.2 0-3.1l14-14.1c.8-.9 2.2-.9 3.1 0 .9.8.9 2.2 0 3.1l-14 14.1c-.4.4-1 .6-1.6.6z"/><path fill="#75B72B" d="M60.2 46.9c-.6 0-1.1-.2-1.5-.6L49.5 37c-.8-.9-.8-2.2 0-3.1.9-.9 2.2-.8 3.1 0l9.2 9.2c.8.9.8 2.2 0 3.1-.5.5-1 .7-1.6.7zM77.5 92.1h-34c-1.2 0-2.2-1-2.2-2.2 0-1.2 1-2.2 2.2-2.2h34c1.2 0 2.2 1 2.2 2.2 0 1.2-1 2.2-2.2 2.2zM71.6 113.3H49.4c-1.2 0-2.2-1-2.2-2.2 0-1.2 1-2.2 2.2-2.2h22.1c1.2 0 2.2 1 2.2 2.2 0 1.2-.9 2.2-2.1 2.2zM77.5 102.4h-34c-1.2 0-2.2-1-2.2-2.2 0-1.2 1-2.2 2.2-2.2h34c1.2 0 2.2 1 2.2 2.2 0 1.2-1 2.2-2.2 2.2z"/><path fill="#75B72B" d="M44 82.3h-.4c-1.2-.2-2-1.4-1.7-2.5 1.3-7.1-1.8-11.3-6.1-17l-1-1.4c-7.1-10.5-7.4-13.2-7.4-20.9 0-18 14.8-32.6 32.9-32.6 18.5 0 32.9 14.3 32.9 32.6 0 8.1-2.7 15.6-7.6 21-.8.9-2.2 1-3.1.2-.9-.8-1-2.2-.2-3.1 4.2-4.7 6.5-11.1 6.5-18.1 0-15.9-12.6-28.3-28.6-28.3-15.7 0-28.6 12.7-28.6 28.3 0 6.8 0 8.6 6.6 18.4l1 1.3c4.4 5.9 8.6 11.4 6.9 20.5-.1.8-1 1.6-2.1 1.6z"/><path fill="#75B72B" d="M76.4 82.3c-1 0-1.9-.7-2.1-1.8-1.7-9 2.5-14.6 6.9-20.4l1-1.4c6.6-9.7 6.6-11.5 6.6-18.3 0-15.9-12.6-28.3-28.6-28.3-15.7 0-28.6 12.7-28.6 28.3 0 6.5 2.6 13.1 7 18.1.8.9.7 2.3-.2 3.1-.9.8-2.3.7-3.1-.2-5.1-5.8-8.1-13.4-8.1-21 0-18 14.8-32.6 32.9-32.6C78.6 7.8 93 22.1 93 40.4c0 7.7-.3 10.4-7.4 20.8l-1.1 1.5c-4.3 5.7-7.4 9.9-6.1 17 .2 1.2-.6 2.3-1.7 2.5 0 .1-.2.1-.3.1zM97.5 30.6c-.9 0-1.7-.5-2-1.4-.4-1.1.1-2.4 1.3-2.8l4.3-1.6c1.1-.4 2.4.1 2.8 1.3.4 1.1-.1 2.4-1.3 2.8l-4.3 1.6c-.3 0-.6.1-.8.1zM103.9 47.4H99c-1.2 0-2.2-1-2.2-2.2 0-1.2 1-2.2 2.2-2.2h4.9c1.2 0 2.2 1 2.2 2.2 0 1.3-1 2.2-2.2 2.2zM100.1 64.3c-.3 0-.5 0-.8-.1L95 62.6c-1.1-.4-1.7-1.7-1.3-2.8s1.7-1.6 2.8-1.3l4.3 1.6c1.1.4 1.7 1.7 1.3 2.8-.2.9-1.1 1.4-2 1.4z"/><path fill="#75B72B" d="M37.6 47.4H30c-1.2 0-2.2-1-2.2-2.2 0-1.2 1-2.2 2.2-2.2h7.6c1.2 0 2.2 1 2.2 2.2 0 1.3-1 2.2-2.2 2.2zM60.2 19.7c-1.2 0-2.2-1-2.2-2.2V9.9c0-1.2 1-2.2 2.2-2.2 1.2 0 2.2 1 2.2 2.2v7.6c0 1.2-1 2.2-2.2 2.2zM91 47.4h-7.6c-1.2 0-2.2-1-2.2-2.2 0-1.2 1-2.2 2.2-2.2H91c1.2 0 2.2 1 2.2 2.2 0 1.3-1 2.2-2.2 2.2z"/></svg>