<svg xmlns="http://www.w3.org/2000/svg" viewBox="0 0 121 121"><path fill="#75B72B" d="M77.5 53.4h-34c-1.2 0-2.2-1-2.2-2.2 0-1.2 1-2.2 2.2-2.2h34c1.2 0 2.2 1 2.2 2.2 0 1.3-1 2.2-2.2 2.2zM78 72.5H43c-1.2 0-2.2-1-2.2-2.2 0-1.2 1-2.2 2.2-2.2h35c1.2 0 2.2 1 2.2 2.2 0 1.2-1 2.2-2.2 2.2z"/><path fill="#75B72B" d="M90.4 113.3c-1 0-2-.8-2.1-1.8-.4-2.4-1-5.8-10.4-12.2-4.7-3-10.4-5.7-15.8-8.3-14.7-7-30-14.2-30-30.5s15.2-23.6 30-30.5c5.4-2.6 11-5.2 15.8-8.3 9.4-6.3 9.9-9.7 10.4-12.1.2-1.2 1.3-2 2.5-1.8 1.2.2 2 1.3 1.8 2.5-.6 3.9-2.1 8.2-12.3 15.1-5.1 3.3-10.8 6-16.3 8.6-14.1 6.7-27.5 13-27.5 26.6S49.9 80.4 64 87.1c5.5 2.6 11.3 5.3 16.3 8.6 10.2 6.8 11.7 11.2 12.3 15.1.2 1.2-.6 2.3-1.8 2.5h-.4z"/><path fill="#75B72B" d="M30.6 113.3h-.4c-1.2-.2-2-1.3-1.8-2.5.6-3.9 2.1-8.2 12.3-15.1 5.1-3.3 10.8-6 16.3-8.6 14.1-6.7 27.5-13 27.5-26.6S71.1 40.6 57 33.9c-5.5-2.6-11.3-5.3-16.3-8.6C30.5 18.5 29 14.1 28.4 10.2c-.2-1.1.6-2.2 1.8-2.4 1.3-.2 2.3.6 2.5 1.8.4 2.4 1 5.8 10.4 12.2 4.7 3 10.4 5.7 15.8 8.3 14.7 7 30 14.2 30 30.5S73.6 84.1 58.9 91c-5.4 2.6-11 5.2-15.8 8.3-9.4 6.3-9.9 9.7-10.4 12.1-.2 1.1-1.1 1.9-2.1 1.9z"/><path fill="#75B72B" d="M77.5 19.1h-34c-1.2 0-2.2-1-2.2-2.2 0-1.2 1-2.2 2.2-2.2h34c1.2 0 2.2 1 2.2 2.2 0 1.3-1 2.2-2.2 2.2zM77.5 106.2h-34c-1.2 0-2.2-1-2.2-2.2 0-1.2 1-2.2 2.2-2.2h34c1.2 0 2.2 1 2.2 2.2 0 1.2-1 2.2-2.2 2.2z"/></svg>