<svg xmlns="http://www.w3.org/2000/svg" viewBox="0 0 121 121"><path fill="#75B72B" d="M75.9 113.3H45.7c-.9 0-1.6-.5-2-1.3-.3-.8-.2-1.7.4-2.4l14.5-15.7V49.6c0-1.2 1-2.2 2.2-2.2 1.2 0 2.2 1 2.2 2.2v44.3l14.5 15.7c.6.6.7 1.6.4 2.4-.4.8-1.2 1.3-2 1.3zm-15.1-4.4h10.1L60.8 98l-10.1 10.9h10.1zM104.5 35.5H69.4c-1.2 0-2.2-1-2.2-2.2 0-1.2 1-2.2 2.2-2.2h35.1c1.2 0 2.2 1 2.2 2.2-.1 1.2-1 2.2-2.2 2.2z"/><path fill="#75B72B" d="M110.4 66.5H80.2c-.8 0-1.4-.4-1.8-1-.4-.6-.4-1.4-.1-2.1l15.1-31c.1-.2.2-.3.3-.5.2-.2.4-.3.6-.4.3-.1.6-.2.9-.2.3 0 .5.1.7.1.3.1.6.3.8.6.1.1.2.3.3.5l15.1 31c.3.7.3 1.5-.1 2.1-.2.5-.8.9-1.6.9zm-15.1-4.4h11.6L95.3 38.3 83.7 62.1h11.6z"/><path fill="#75B72B" d="M95.3 81.7c-9.5 0-17.3-7.8-17.3-17.4 0-1.2 1-2.2 2.2-2.2 1.2 0 2.2 1 2.2 2.2 0 7.2 5.8 13.1 12.9 13.1 7.4 0 12.9-5.6 12.9-13.1 0-1.2 1-2.2 2.2-2.2 1.2 0 2.2 1 2.2 2.2 0 9.9-7.5 17.4-17.3 17.4zM60.8 26.8c-1.2 0-2.2-1-2.2-2.2V9.9c0-1.2 1-2.2 2.2-2.2 1.2 0 2.2 1 2.2 2.2v14.7c-.1 1.2-1 2.2-2.2 2.2zM51.6 35.5H16.5c-1.2 0-2.2-1-2.2-2.2 0-1.2 1-2.2 2.2-2.2h35.1c1.2 0 2.2 1 2.2 2.2 0 1.2-1 2.2-2.2 2.2z"/><path fill="#75B72B" d="M40.8 66.5H10.6c-.8 0-1.4-.4-1.8-1-.4-.6-.4-1.4-.1-2.1l15.1-31c.1-.2.2-.3.3-.4.2-.2.5-.4.7-.5.3-.1.5-.2.9-.2.3 0 .5.1.8.2.2.1.4.2.6.4.2.2.4.4.5.7l15.1 31c.3.7.3 1.5-.1 2.1-.3.4-1 .8-1.8.8zm-15.1-4.4h11.6L25.7 38.3 14.1 62.1h11.6z"/><path fill="#75B72B" d="M25.7 81.7c-9.5 0-17.3-7.8-17.3-17.4 0-1.2 1-2.2 2.2-2.2s2.2 1 2.2 2.2c0 7.2 5.8 13.1 12.9 13.1s12.9-5.9 12.9-13.1c0-1.2 1-2.2 2.2-2.2 1.2 0 2.2 1 2.2 2.2 0 9.6-7.8 17.4-17.3 17.4zM60.8 44.2c-6.3 0-11.3-4.9-11.3-10.9s5.1-10.9 11.3-10.9c6.1 0 10.8 4.8 10.8 10.9s-4.8 10.9-10.8 10.9zm0-17.4c-3.8 0-7 3-7 6.5s3.2 6.5 7 6.5c3.7 0 6.5-2.8 6.5-6.5s-2.9-6.5-6.5-6.5z"/></svg>