<svg xmlns="http://www.w3.org/2000/svg" viewBox="0 0 121 121"><path fill="#75B72B" d="M42.7 113.5H18.4c-1.2 0-2.2-1-2.2-2.2s1-2.2 2.2-2.2h24.3c1.2 0 2.2 1 2.2 2.2s-1 2.2-2.2 2.2zM30.3 102.7H18.4c-1.2 0-2.2-1-2.2-2.2s1-2.2 2.2-2.2h11.9c1.2 0 2.2 1 2.2 2.2s-1 2.2-2.2 2.2zM30.3 90.1H18.4c-1.2 0-2.2-1-2.2-2.2 0-1.2 1-2.2 2.2-2.2h11.9c1.2 0 2.2 1 2.2 2.2 0 1.3-1 2.2-2.2 2.2zM42.7 79.8H18.4c-1.2 0-2.2-1-2.2-2.2 0-1.2 1-2.2 2.2-2.2h24.3c1.2 0 2.2 1 2.2 2.2 0 1.2-1 2.2-2.2 2.2zM42.7 46.1H18.4c-1.2 0-2.2-1-2.2-2.2 0-1.2 1-2.2 2.2-2.2h24.3c1.2 0 2.2 1 2.2 2.2 0 1.2-1 2.2-2.2 2.2zM12.5 113.5c-1.2 0-2.2-1-2.2-2.2V9.6c0-1.2 1-2.2 2.2-2.2s2.2 1 2.2 2.2v101.7c0 1.3-1 2.2-2.2 2.2z"/><path fill="#75B72B" d="M42.7 46.1H18.4c-1.2 0-2.2-1-2.2-2.2 0-1.2 1-2.2 2.2-2.2h24.3c1.2 0 2.2 1 2.2 2.2 0 1.2-1 2.2-2.2 2.2zM42.7 11.8H18.4c-1.2 0-2.2-1-2.2-2.2s1-2.2 2.2-2.2h24.3c1.2 0 2.2 1 2.2 2.2s-1 2.2-2.2 2.2zM30.3 68.9H18.4c-1.2 0-2.2-1-2.2-2.2 0-1.2 1-2.2 2.2-2.2h11.9c1.2 0 2.2 1 2.2 2.2 0 1.3-1 2.2-2.2 2.2zM30.3 56.4H18.4c-1.2 0-2.2-1-2.2-2.2 0-1.2 1-2.2 2.2-2.2h11.9c1.2 0 2.2 1 2.2 2.2 0 1.2-1 2.2-2.2 2.2zM30.3 35.2H18.4c-1.2 0-2.2-1-2.2-2.2 0-1.2 1-2.2 2.2-2.2h11.9c1.2 0 2.2 1 2.2 2.2 0 1.2-1 2.2-2.2 2.2zM30.3 22.7H18.4c-1.2 0-2.2-1-2.2-2.2s1-2.2 2.2-2.2h11.9c1.2 0 2.2 1 2.2 2.2s-1 2.2-2.2 2.2zM99.9 113.5H53.5c-1.2 0-2.2-1-2.2-2.2s1-2.2 2.2-2.2h46.4c1.2 0 2.2 1 2.2 2.2s-1 2.2-2.2 2.2zM78.8 107.6h-.3c-1.2-.2-2-1.2-1.9-2.4.3-2.6.3-5.2 0-7.8-6.1 1.6-11.5 1-16-1.9-8.4-5.2-13.9-18.1-16.3-38.2-.1-.7.2-1.4.7-1.9.5-.5 1.2-.7 1.9-.5C68.7 59.7 81 66.6 84.5 75.8c2.2 5.7.9 12.1-3.8 19.1.7 3.6.8 7.2.3 10.8-.1 1.1-1.1 1.9-2.2 1.9zM49 59.8c2.4 16.9 7.1 27.6 13.9 31.9 3.6 2.3 7.8 2.7 12.9 1.3-1-3.5-2.5-7-4.7-10.4-.7-1-.4-2.4.7-3 1-.6 2.4-.4 3 .7 1.8 2.9 3.3 5.8 4.4 8.8 2.2-4.4 2.7-8.3 1.4-11.7-2.9-7.3-13.5-13.2-31.6-17.6z"/><path fill="#75B72B" d="M89.7 101.9c-4 0-8.3-1.9-12.8-5.8-.6-.5-.9-1.2-.8-2 .1-.7.6-1.4 1.3-1.7 3.3-1.4 6.3-3.4 9.7-6.2.9-.8 2.3-.7 3.1.3.8.9.7 2.3-.3 3.1-2.6 2.2-5 3.9-7.6 5.3 3.6 2.4 6.8 3.2 9.6 2.3 5.2-1.6 9.8-9.1 13.6-22.3-6.1.3-12.9 1.7-20.7 4.2-1.2.4-2.4-.3-2.7-1.4-.4-1.1.3-2.4 1.4-2.7 9.5-3 17.6-4.4 24.9-4.5h.4c.2 0 .4.1.6.2.3.1.6.4.8.6.2.3.3.6.4.9 0 .2.1.5 0 .7 0 .1 0 .2-.1.4-4.5 16.6-10.1 25.8-17.3 28.1-1.1.4-2.3.5-3.5.5z"/></svg>