<svg xmlns="http://www.w3.org/2000/svg" viewBox="0 0 121 121"><path fill="#75B72B" d="M79.9 34.2l-3.7-2.3 9.7-15.8 3.7 2.3zM41.1 34.1l-9.2-15.8 3.8-2.1 9.1 15.7zM21 58.9l-11.9-6L11 49l11.9 6zM100 58.9L98.1 55l11.9-6 1.9 3.9z"/><path fill="#75B72B" d="M110.9 62.9c-1.2 0-2.2-1-2.2-2.2 0-27-21.5-49-48-49-26.8 0-48.5 22-48.5 49 0 1.2-1 2.2-2.2 2.2s-2.2-1-2.2-2.2c0-29.4 23.7-53.3 52.9-53.3 28.9 0 52.3 23.9 52.3 53.3.1 1.3-.9 2.2-2.1 2.2z"/><path fill="#75B72B" d="M10.1 113.5c-1.2 0-2.2-1-2.2-2.2V58.1c0-1.2 1-2.2 2.2-2.2s2.2 1 2.2 2.2v53.3c-.1 1.2-1 2.1-2.2 2.1zM110.9 113.5c-1.2 0-2.2-1-2.2-2.2V58.1c0-1.2 1-2.2 2.2-2.2s2.2 1 2.2 2.2v53.3c0 1.2-1 2.1-2.2 2.1zM101.2 72.7c-1.2 0-2.2-1-2.2-2.2 0-21.6-17.2-39.2-38.3-39.2-21.4 0-38.8 17.6-38.8 39.2 0 1.2-1 2.2-2.2 2.2s-2.2-1-2.2-2.2C17.6 46.6 37 27 60.8 27c23.5 0 42.6 19.5 42.6 43.5 0 1.3-1 2.2-2.2 2.2z"/><path fill="#75B72B" d="M19.8 107.5c-1.2 0-2.2-1-2.2-2.2v-37c0-1.2 1-2.2 2.2-2.2s2.2 1 2.2 2.2v37c-.1 1.3-1 2.2-2.2 2.2zM101.2 107.5c-1.2 0-2.2-1-2.2-2.2v-37c0-1.2 1-2.2 2.2-2.2s2.2 1 2.2 2.2v37c0 1.3-1 2.2-2.2 2.2zM84 113.5H37.6c-1.2 0-2.2-1-2.2-2.2s1-2.2 2.2-2.2H84c1.2 0 2.2 1 2.2 2.2s-1 2.2-2.2 2.2zM62.9 107h-.3c-1.2-.2-2-1.3-1.8-2.5.3-2.4.3-4.8 0-7.3-6.1 1.6-11.5 1-16-1.9-8.4-5.2-13.9-18.1-16.3-38.2-.1-.7.2-1.4.7-1.9.5-.5 1.2-.6 1.9-.5 21.7 4.9 34 11.8 37.5 21.1 2.2 5.7.9 12-3.7 18.9.7 3.5.8 6.9.3 10.3-.3 1.2-1.2 2-2.3 2zM33.1 59.8c2.4 16.9 7.1 27.6 13.9 31.9 3.6 2.3 7.8 2.7 12.9 1.3-1-3.5-2.6-7-4.7-10.4-.7-1-.4-2.4.7-3 1-.6 2.4-.4 3 .7 1.8 2.9 3.3 5.8 4.4 8.7 2.1-4.3 2.6-8.1 1.3-11.5-2.9-7.3-13.5-13.2-31.5-17.7z"/><path fill="#75B72B" d="M73.8 101.9c-4 0-8.3-1.9-12.8-5.8-.6-.5-.8-1.2-.8-1.9.1-.7.5-1.4 1.2-1.7 4.1-2 7.3-4.1 9.8-6.3.9-.8 2.3-.7 3.1.3.8.9.7 2.3-.3 3.1-2.1 1.8-4.7 3.5-7.6 5.2 3.7 2.5 6.9 3.3 9.7 2.4 5.2-1.7 9.6-9.1 13.1-22.2-6.1.3-13 1.7-20.8 4.2-1.1.4-2.4-.3-2.7-1.4-.4-1.1.3-2.4 1.4-2.7 9.5-3 17.6-4.4 24.9-4.5h.4c.2 0 .4.1.7.2.3.1.6.4.8.6.2.3.3.6.4.9 0 .2.1.4 0 .7 0 .1 0 .2-.1.4-4.1 16.6-9.6 25.8-16.7 28.1-1.3.3-2.5.4-3.7.4zM11.2 113.2l-2.3-3.7 9.7-6 2.3 3.7zM109.8 113.2l-9.7-6 2.3-3.7 9.7 6z"/></svg>