<svg xmlns="http://www.w3.org/2000/svg" width="32" height="32"><defs><clipPath id="a"><path fill="#fff" d="M0 16a16 16 0 1 1 32 0 16 16 0 0 1-32 0z"/></clipPath><clipPath id="b"><path fill="#fff" d="M13 8a3 3 0 1 1 6 0 3 3 0 0 1-6 0z"/></clipPath><clipPath id="c"><path fill="#fff" d="M14 15c0-1 1-2 2-2s2 1 2 2v10c0 1-1 2-2 2s-2-1-2-2z"/></clipPath></defs><path fill="none" stroke="#74b908" stroke-miterlimit="50" stroke-width="2" d="M0 16a16 16 0 1 1 32 0 16 16 0 0 1-32 0z" clip-path="url(&quot;#a&quot;)"/><path fill="none" stroke="#74b908" stroke-miterlimit="50" stroke-width="2" d="M13 8a3 3 0 1 1 6 0 3 3 0 0 1-6 0z" clip-path="url(&quot;#b&quot;)"/><path fill="none" stroke="#74b908" stroke-miterlimit="50" stroke-width="2" d="M14 15c0-1 1-2 2-2s2 1 2 2v10c0 1-1 2-2 2s-2-1-2-2z" clip-path="url(&quot;#c&quot;)"/></svg>