<svg xmlns="http://www.w3.org/2000/svg" viewBox="0 0 121 121"><path fill="#75B72B" d="M100.1 113.5H20.9c-7.2 0-13-5.9-13-13.1v-49c0-7.2 5.8-13.1 13-13.1h79.3c7.2 0 13 5.9 13 13.1v49c-.1 7.3-5.9 13.1-13.1 13.1zM20.9 42.8c-4.8 0-8.6 3.9-8.6 8.7v49c0 4.8 3.9 8.7 8.6 8.7h79.3c4.8 0 8.6-3.9 8.6-8.7v-49c0-4.8-3.9-8.7-8.6-8.7H20.9zM86.7 28.1c-1.2 0-2.2-1-2.2-2.2 0-7.5-11.1-14.1-23.7-14.1-12.9 0-23.7 6.5-23.7 14.1 0 1.2-1 2.2-2.2 2.2-1.2 0-2.2-1-2.2-2.2 0-10.2 12.6-18.5 28.1-18.5 15.2 0 28.1 8.5 28.1 18.5-.1 1.2-1 2.2-2.2 2.2zM39.7 36.8c-1.2 0-2.2-1-2.2-2.2 0-.4-.1-.6-.2-.6h-5.1v.5c0 1.2-1 2.2-2.2 2.2s-2.2-1-2.2-2.2c0-3.6 2-4.9 3.8-4.9h5.9c2.4 0 4.3 2.2 4.3 4.9.1 1.4-.9 2.3-2.1 2.3zM91.5 36.8c-1.2 0-2.2-1-2.2-2.2 0-.4-.1-.6-.2-.6H84v.5c0 1.2-1 2.2-2.2 2.2s-2.2-1-2.2-2.2c0-3.6 2-4.9 3.8-4.9h5.9c2.4 0 4.3 2.2 4.3 4.9.1 1.4-.9 2.3-2.1 2.3z"/><path fill="#75B72B" d="M66.7 101.6H54.3c-2.3 0-4.3-2.1-4.3-4.3V86.9c0-.5-.1-.5-.5-.5H39.2c-2.3 0-4.3-2.1-4.3-4.3V69.5c0-2.3 2.1-4.3 4.3-4.3h10.2c.4 0 .5-.1.5-.5V54.2c0-2.3 2.1-4.3 4.3-4.3h12.4c2.3 0 4.3 2.1 4.3 4.3v10.3c0 .5.1.5.5.5h10.2c2.3 0 4.3 2.1 4.3 4.3V82c0 2.3-2.1 4.3-4.3 4.3h-10c-.4 0-.5.1-.5.5v10.3c-.1 2.4-2.1 4.5-4.4 4.5zM49.4 82c2.8 0 4.9 2.1 4.9 4.9v10.3h12.2l.1-10.3c0-2.8 2.1-4.9 4.9-4.9h10.2V69.5H71.6c-2.8 0-4.9-2.1-4.9-4.9V54.2H54.3v10.3c0 2.8-2.1 4.9-4.9 4.9H39.2v12.5h10.2z"/></svg>