<svg xmlns="http://www.w3.org/2000/svg" viewBox="0 0 121 121"><path fill="#75B72B" d="M54.6 18.1c-.6 0-1.1-.2-1.5-.6-.9-.8-.9-2.2 0-3.1l5.9-6c.8-.9 2.2-.9 3.1 0 .9.8.9 2.2 0 3.1l-5.9 6c-.5.4-1.1.6-1.6.6z"/><path fill="#75B72B" d="M65.9 18.1c-.6 0-1.2-.2-1.6-.7l-5.4-6c-.8-.9-.7-2.3.2-3.1.9-.8 2.3-.7 3.1.2l5.4 6c.8.9.7 2.3-.2 3.1-.5.3-1 .5-1.5.5zM71.8 19.2c-.8 0-1.6-.5-2-1.3-.5-1.1 0-2.4 1.1-2.9l7.5-3.3a2.2 2.2 0 0 1 1.8 4L72.7 19c-.3.1-.6.2-.9.2z"/><path fill="#75B72B" d="M82.6 23.5c-.8 0-1.7-.5-2-1.3l-3.2-7.6a2.2 2.2 0 0 1 4-1.8l3.2 7.6c.5 1.1 0 2.4-1.1 2.9-.3.2-.6.2-.9.2zM87.5 27.3c-1.1 0-2.1-.9-2.2-2-.1-1.2.8-2.2 2-2.3l8.6-.5c1.2 0 2.2.8 2.3 2 .1 1.2-.8 2.2-2 2.3l-8.6.5h-.1z"/><path fill="#75B72B" d="M95.6 35.5h-.1c-1.2-.1-2.1-1.1-2-2.3l.5-8.7c.1-1.2 1.3-2 2.3-2 1.2.1 2.1 1.1 2 2.3l-.5 8.7c-.1 1.1-1.1 2-2.2 2zM106.9 43.1c-.2 0-.5 0-.7-.1l-8.1-2.7c-1.1-.4-1.7-1.6-1.4-2.8.4-1.1 1.6-1.7 2.8-1.4l8.1 2.7c1.1.4 1.7 1.6 1.4 2.8-.4.9-1.2 1.5-2.1 1.5z"/><path fill="#75B72B" d="M103.1 50.7c-.3 0-.7-.1-1-.2-1.1-.5-1.5-1.8-1-2.9l3.8-7.6c.5-1.1 1.9-1.5 2.9-1 1.1.5 1.5 1.8 1 2.9l-3.8 7.6c-.3.8-1.1 1.2-1.9 1.2zM110.7 62.7c-.6 0-1.1-.2-1.5-.6l-5.9-6c-.8-.9-.8-2.2 0-3.1.9-.9 2.2-.8 3.1 0l5.9 6c.8.9.8 2.2 0 3.1-.5.4-1.1.6-1.6.6z"/><path fill="#75B72B" d="M104.7 68.7c-.6 0-1.1-.2-1.5-.6-.9-.8-.9-2.2 0-3.1l5.9-6c.9-.9 2.2-.9 3.1 0 .9.8.9 2.2 0 3.1l-5.9 6c-.5.4-1 .6-1.6.6zM106.9 82.3c-.8 0-1.6-.5-2-1.3l-3.8-8.2a2.2 2.2 0 0 1 4-1.8l3.8 8.2c.5 1.1 0 2.4-1.1 2.9-.3.1-.6.2-.9.2z"/><path fill="#75B72B" d="M98.8 85a2.2 2.2 0 0 1-.7-4.3l8.1-2.7c1.1-.4 2.4.2 2.8 1.4.4 1.1-.2 2.4-1.4 2.8l-8.1 2.7c-.2 0-.5.1-.7.1zM96.1 98.6c-1.1 0-2.1-.9-2.2-2l-.5-8.7c-.1-1.2.8-2.2 2-2.3 1 0 2.2.8 2.3 2l.5 8.7c.1 1.2-.8 2.2-2 2.3h-.1z"/><path fill="#75B72B" d="M96.1 98.6H96l-8.7-.6c-1.2-.1-2.1-1.1-2-2.3.1-1.2 1.1-2.1 2.3-2l8.6.5c1.2.1 2.1 1.1 2 2.3 0 1.2-1 2.1-2.1 2.1zM79.4 109.5c-.3 0-.5 0-.8-.1a2.1 2.1 0 0 1-1.2-2.8l3.2-8.2c.5-1.1 1.7-1.7 2.8-1.2 1.1.4 1.7 1.7 1.2 2.8l-3.2 8.2c-.3.7-1.2 1.3-2 1.3z"/><path fill="#75B72B" d="M79.4 109.5c-.3 0-.6-.1-.9-.2L71 106c-1.1-.5-1.6-1.8-1.1-2.9.5-1.1 1.8-1.6 2.9-1.1l7.5 3.3c1.1.5 1.6 1.8 1.1 2.9-.4.8-1.2 1.3-2 1.3zM60.5 113.3c-.5 0-1-.2-1.5-.6-.9-.8-1-2.2-.2-3.1l5.4-6c.8-.9 2.2-1 3.1-.2.9.8 1 2.2.2 3.1l-5.4 6c-.4.5-1 .8-1.6.8z"/><path fill="#75B72B" d="M60.5 113.3c-.6 0-1.1-.2-1.5-.6l-5.9-6c-.8-.9-.8-2.2 0-3.1.9-.9 2.2-.8 3.1 0l5.9 6c.8.9.8 2.2 0 3.1-.5.4-1 .6-1.6.6zM41.1 109.5c-.8 0-1.6-.5-2-1.3-.5-1.1 0-2.4 1.1-2.9l7.5-3.3a2.2 2.2 0 0 1 1.8 4l-7.5 3.3c-.3.1-.6.2-.9.2z"/><path fill="#75B72B" d="M41.1 109.5c-.9 0-1.8-.6-2.1-1.5l-2.7-8.2c-.4-1.1.2-2.4 1.4-2.8 1.2-.4 2.4.2 2.8 1.4l2.7 8.2c.4 1.1-.2 2.4-1.4 2.8-.3 0-.5.1-.7.1zM24.9 98.6c-1.1 0-2.1-.9-2.2-2-.1-1.2.8-2.2 2-2.3l8.6-.5c1.2-.1 2.2.8 2.3 2 .1 1.2-.8 2.2-2 2.3l-8.6.5h-.1z"/><path fill="#75B72B" d="M24.9 98.6c-1.2 0-2.2-1-2.2-2.2v-8.7c0-1.2 1-2.2 2.2-2.2 1.2 0 2.2 1 2.2 2.2v8.7c0 1.2-1 2.2-2.2 2.2zM21.7 85c-.2 0-.5 0-.7-.1l-7.6-2.7c-1.1-.4-1.7-1.7-1.3-2.8.4-1.1 1.6-1.8 2.8-1.3l7.6 2.7c1.1.4 1.7 1.7 1.3 2.8-.4.8-1.2 1.4-2.1 1.4z"/><path fill="#75B72B" d="M14.1 82.3c-.3 0-.5 0-.8-.1a2.1 2.1 0 0 1-1.2-2.8l3.2-8.2c.5-1.1 1.7-1.6 2.8-1.2 1.1.4 1.7 1.7 1.2 2.8L16.1 81c-.3.7-1.1 1.3-2 1.3zM16.3 68.7c-.6 0-1.1-.2-1.5-.6l-5.9-6c-.8-.9-.8-2.2 0-3.1.9-.9 2.2-.8 3.1 0l5.9 6c.8.9.8 2.2 0 3.1-.5.4-1.1.6-1.6.6z"/><path fill="#75B72B" d="M10.3 62.7c-.6 0-1.1-.2-1.5-.6-.9-.8-.9-2.2 0-3.1l5.9-6c.9-.9 2.2-.9 3.1 0 .9.8.9 2.2 0 3.1l-5.9 6c-.4.4-1 .6-1.6.6zM17.3 51.3c-.9 0-1.7-.5-2-1.4l-3.2-8.2c-.4-1.1.1-2.4 1.2-2.8 1.1-.4 2.4.1 2.8 1.2l3.2 8.2c.4 1.1-.1 2.4-1.2 2.8-.2.1-.5.2-.8.2z"/><path fill="#75B72B" d="M14.1 43.1c-.9 0-1.7-.5-2-1.4-.4-1.1.2-2.4 1.3-2.8l7.6-2.7c1.1-.5 2.4.2 2.8 1.3.4 1.1-.2 2.4-1.3 2.8L14.8 43c-.2.1-.5.1-.7.1zM24.9 35.5c-1.2 0-2.2-1-2.2-2.2v-8.7c0-1.2 1-2.2 2.2-2.2 1.2 0 2.2 1 2.2 2.2v8.7c0 1.2-1 2.2-2.2 2.2z"/><path fill="#75B72B" d="M33.5 27.3h-.1l-8.6-.5c-1.2-.1-2.1-1.1-2-2.3.1-1.2 1.1-2 2.3-2l8.6.5c1.2.1 2.1 1.1 2 2.3-.1 1.1-1 2-2.2 2zM38.4 24.1c-.2 0-.5 0-.7-.1-1.1-.4-1.8-1.6-1.4-2.8L39 13c.4-1.1 1.6-1.7 2.8-1.4 1.1.4 1.8 1.6 1.4 2.8l-2.7 8.2c-.4.9-1.2 1.5-2.1 1.5z"/><path fill="#75B72B" d="M48.6 19.2c-.3 0-.6-.1-.9-.2l-7.5-3.3c-1.1-.5-1.6-1.8-1.1-2.9.5-1.1 1.8-1.6 2.9-1.1l7.5 3.3c1.1.5 1.6 1.8 1.1 2.9-.3.8-1.1 1.3-2 1.3zM31.4 74.1h-.2c-1.2-.1-2.1-1.2-2-2.4l2.2-22.8c.1-1 .9-1.8 1.8-2 1.1-.1 2 .4 2.3 1.3l6.2 14.9 6.6-14.9c.4-.9 1.4-1.5 2.4-1.3 1 .2 1.7 1 1.8 2L54 71.8c.1 1.2-.8 2.2-2 2.3h-.2c-1.1 0-2.1-.9-2.2-2l-1-14.1-5.1 11.5c-.3.8-1.1 1.3-2 1.3-1.1 0-1.7-.5-2-1.3L34.9 58l-1.3 14.1c-.2 1.2-1.1 2-2.2 2zM63.7 74.1c-1.2 0-2.2-1-2.2-2.2V49.1c0-1.2 1-2.2 2.2-2.2 1.2 0 2.2 1 2.2 2.2v22.8c0 1.2-1 2.2-2.2 2.2zM89.1 74.1a2 2 0 0 1-1.8-1L72.2 50.3c-.7-1-.4-2.4.6-3 1-.7 2.3-.4 3 .6l15.1 22.8c.7 1 .4 2.4-.6 3-.4.3-.8.4-1.2.4z"/><path fill="#75B72B" d="M74 74.1c-.4 0-.8-.1-1.2-.4-1-.7-1.3-2-.6-3l15.1-22.8c.7-1 2-1.3 3-.6 1 .7 1.3 2 .6 3L75.8 73.1a2 2 0 0 1-1.8 1z"/></svg>