<svg xmlns="http://www.w3.org/2000/svg" viewBox="0 0 121 121"><path fill="#75B72B" d="M110.9 113.5c-.9 0-1.7-.5-2-1.3L81.3 45.8 75.2 61a2.1 2.1 0 0 1-2.8 1.2 2.1 2.1 0 0 1-1.2-2.8l8.1-20.1v-.1c.1-.2.2-.4.4-.6.2-.2.4-.3.6-.4 0 0 .1 0 .1-.1.2-.1.5-.1.7-.1.2 0 .4 0 .6.1.1 0 .2.1.3.1.2.1.3.2.5.3.2.2.4.5.5.8l29.7 71.3c.5 1.1-.1 2.4-1.2 2.8 0 .1-.3.1-.6.1z"/><path fill="#75B72B" d="M10.1 113.5c-.3 0-.6 0-.8-.2-1.1-.5-1.6-1.7-1.2-2.8l42-101.7c.1-.3.3-.5.5-.7.2-.2.4-.4.7-.5.3-.1.7-.2.9-.2 0 0 .4 0 .6.1.1 0 .2.1.3.1.2.1.4.3.6.4.1.1.3.3.3.5 0 .1.1.1.1.2l21 50.6c.5 1.1-.1 2.4-1.2 2.8-1.1.4-2.4-.1-2.8-1.2l-19-45.8L12 112c-.3 1-1.1 1.5-1.9 1.5z"/><path fill="#75B72B" d="M10.1 109.2H111v4.3H10.1zM52.1 63.5c-.7 0-1.4-.4-1.9-1-.6-1-.3-2.4.7-3l12.4-7.6c1-.6 2.4-.3 3 .7.6 1 .3 2.4-.7 3l-12.4 7.6c-.3.2-.7.3-1.1.3z"/><path fill="#75B72B" d="M52.1 63.5c-.4 0-.8-.1-1.1-.3l-12.9-7.6c-1-.6-1.4-1.9-.8-3 .6-1 1.9-1.4 3-.8l12.9 7.6c1 .6 1.4 1.9.8 3-.4.7-1.1 1.1-1.9 1.1z"/></svg>