<svg xmlns="http://www.w3.org/2000/svg" viewBox="0 0 121 121"><path fill="#75B72B" d="M60.8 95A32.5 32.5 0 0 1 29 69.4c-.6-2.3-1.1-4.6-1.1-7.6 0-18 14.8-32.6 32.9-32.6 17.9 0 32.4 14.6 32.4 32.6C93.2 80.2 78.6 95 60.8 95zm0-61.4c-15.8 0-28.6 12.7-28.6 28.3 0 2.4.5 4.4 1 6.5 3 13.2 14.4 22.4 27.6 22.4 15.5 0 28-12.9 28-28.8 0-15.7-12.6-28.4-28-28.4zM60.8 28.1c-1.2 0-2.2-1-2.2-2.2V9.6c0-1.2 1-2.2 2.2-2.2 1.2 0 2.2 1 2.2 2.2V26c-.1 1.2-1 2.1-2.2 2.1z"/><path fill="#75B72B" d="M35.4 38.5c-.5 0-1.1-.2-1.5-.6L22.6 27c-.9-.8-.9-2.2-.1-3.1.8-.9 2.2-.9 3.1-.1l11.3 10.9c.9.8.9 2.2.1 3.1-.4.4-1 .7-1.6.7zM24.6 64H11.7c-1.2 0-2.2-1-2.2-2.2 0-1.2 1-2.2 2.2-2.2h12.9c1.2 0 2.2 1 2.2 2.2 0 1.3-1 2.2-2.2 2.2zM60.8 113.5c-1.2 0-2.2-1-2.2-2.2v-13c0-1.2 1-2.2 2.2-2.2 1.2 0 2.2 1 2.2 2.2v13.1c-.1 1.2-1 2.1-2.2 2.1zM26.2 98.9c-.6 0-1.1-.2-1.5-.6-.9-.8-.9-2.2 0-3.1l9.2-9.2c.9-.9 2.2-.9 3.1 0 .9.8.9 2.2 0 3.1l-9.2 9.2c-.4.3-1 .6-1.6.6zM95.3 98.9c-.6 0-1.1-.2-1.5-.6L84.6 89c-.8-.9-.8-2.2 0-3.1.9-.9 2.2-.8 3.1 0l9.2 9.2c.8.9.8 2.2 0 3.1-.5.4-1 .7-1.6.7zM86.1 38.5a2.2 2.2 0 0 1-1.5-3.8l11.3-10.9c.9-.8 2.3-.8 3.1.1.8.9.8 2.2-.1 3.1L87.6 37.9c-.4.4-.9.6-1.5.6zM109.3 64H96.9c-1.2 0-2.2-1-2.2-2.2 0-1.2 1-2.2 2.2-2.2h12.4c1.2 0 2.2 1 2.2 2.2 0 1.3-1 2.2-2.2 2.2zM27.9 49.9c-.3 0-.6-.1-.9-.2l-3.8-1.6c-1.1-.5-1.6-1.8-1.1-2.9.5-1.1 1.8-1.6 2.9-1.1l3.8 1.6c1.1.5 1.6 1.8 1.1 2.9-.4.8-1.2 1.3-2 1.3zM44.6 101a2.3 2.3 0 0 1-2-3.1l1.6-3.8c.5-1.1 1.8-1.6 2.9-1.2 1.1.5 1.6 1.7 1.2 2.9l-1.6 3.8c-.5.9-1.3 1.4-2.1 1.4zM97.4 80.4c-.3 0-.6-.1-.9-.2l-3.8-1.6c-1.1-.5-1.6-1.8-1.1-2.9.5-1.1 1.7-1.6 2.9-1.1l3.8 1.6c1.1.5 1.6 1.8 1.1 2.9-.3.8-1.1 1.3-2 1.3zM23.6 78.7c-.9 0-1.8-.6-2.1-1.6-.3-1.2.3-2.4 1.5-2.7l3.8-1.1c1.2-.3 2.4.3 2.7 1.5.3 1.2-.3 2.4-1.5 2.7l-3.8 1.1c-.2.1-.5.1-.6.1zM75.3 101.6c-.8 0-1.7-.5-2-1.3l-1.6-3.8c-.5-1.1 0-2.4 1.2-2.9 1.1-.4 2.4 0 2.9 1.2l1.6 3.8c.5 1.1 0 2.4-1.2 2.9-.3 0-.6.1-.9.1zM46.7 30.9c-.8 0-1.7-.5-2-1.3l-1.6-3.8c-.5-1.1 0-2.4 1.2-2.9 1.1-.4 2.4 0 2.9 1.2l1.6 3.8c.5 1.1 0 2.4-1.2 2.9-.3 0-.6.1-.9.1zM93.7 49.9c-.8 0-1.6-.5-2-1.3-.5-1.1 0-2.4 1.1-2.9l3.8-1.6a2.2 2.2 0 0 1 1.8 4l-3.8 1.6c-.3.1-.6.2-.9.2zM74.8 30.9c-.2 0-.4 0-.6-.1-1.2-.3-1.8-1.5-1.5-2.7l1.1-3.8c.3-1.2 1.5-1.8 2.7-1.5 1.2.3 1.8 1.5 1.5 2.7l-1.1 3.8c-.3.9-1.2 1.6-2.1 1.6z"/></svg>