<svg xmlns="http://www.w3.org/2000/svg" viewBox="0 0 121 121"><path fill="#75B72B" d="M71.5 93.9c-9.2 0-18.4-3.5-25.5-10.4a37.18 37.18 0 0 1 0-51.4c.8-.9 2.2-.9 3.1-.1.9.8.9 2.2.1 3.1a32.83 32.83 0 0 0-.1 45.4 32.21 32.21 0 0 0 44.9-.1 32.83 32.83 0 0 0-.1-45.4c-8.5-8-21.2-11-32.2-7.5-1.2.4-2.4-.3-2.7-1.4-.4-1.2.3-2.4 1.4-2.7 12.5-4 26.9-.6 36.7 8.7a37.3 37.3 0 0 1 .1 51.5 37.25 37.25 0 0 1-25.7 10.3zM110.7 99.4c-.6 0-1.1-.2-1.5-.6L97.8 87.3c-.8-.9-.8-2.2 0-3.1.9-.9 2.2-.8 3.1 0l11.3 11.4c.8.9.8 2.2 0 3.1-.4.5-1 .7-1.5.7z"/><path fill="#75B72B" d="M99.3 99.4c-.6 0-1.1-.2-1.5-.6-.9-.8-.9-2.2 0-3.1l11.3-11.4c.8-.9 2.2-.9 3.1 0 .9.8.9 2.2 0 3.1l-11.3 11.4c-.4.4-1 .6-1.6.6zM49.6 93.7c-9.1 0-18.2-3.5-25.1-10.1-14.4-14.5-14.4-37.1 0-51.5 6.7-6.7 15.7-10.4 25.3-10.4 9.6 0 18.6 3.7 25.3 10.4a36.29 36.29 0 0 1 1.7 49.8c-.8.9-2.2 1-3.1.2-.9-.8-1-2.2-.2-3.1a32.07 32.07 0 0 0-1.6-43.9C66 29.2 58.2 26 49.7 25.9c-8.5 0-16.3 3.3-22.2 9.2-12.6 12.7-12.6 32.6 0 45.4 8.7 8.3 21.4 11.1 32.2 7.1 1.1-.4 2.4.2 2.8 1.3.4 1.1-.2 2.4-1.3 2.8-3.7 1.3-7.6 2-11.6 2zM10.3 99.4c-.6 0-1.1-.2-1.5-.6-.9-.8-.9-2.2 0-3.1l11.3-11.4c.8-.9 2.2-.9 3.1 0 .9.8.9 2.2 0 3.1L11.9 98.8c-.4.4-1 .6-1.6.6z"/><path fill="#75B72B" d="M21.7 99.4H10.3c-1.2 0-2.2-1-2.2-2.2V85.8c0-1.2 1-2.2 2.2-2.2s2.2 1 2.2 2.2v9.3h9.2c1.2 0 2.2 1 2.2 2.2-.1 1.1-1 2.1-2.2 2.1z"/></svg>