<svg xmlns="http://www.w3.org/2000/svg" viewBox="0 0 121 121"><path fill="#75B72B" d="M77.2 33.6h-34c-1.2 0-2.2-1-2.2-2.2 0-1.2 1-2.2 2.2-2.2h34c1.2 0 2.2 1 2.2 2.2 0 1.2-1 2.2-2.2 2.2zM71.3 11.8H49.2c-1.2 0-2.2-1-2.2-2.2s1-2.2 2.2-2.2h22.1c1.2 0 2.2 1 2.2 2.2s-1 2.2-2.2 2.2zM77.2 22.7h-34c-1.2 0-2.2-1-2.2-2.2s1-2.2 2.2-2.2h34c1.2 0 2.2 1 2.2 2.2s-1 2.2-2.2 2.2zM60.5 113.5c-18.5 0-32.9-14.3-32.9-32.6 0-5.2 0-8.4 2.9-13.7 1.2-2.6 2.7-5.1 4.6-7.2l1.4-2.1c4-5.7 6.9-9.9 5.7-16.3-.2-1.2.5-2.3 1.7-2.6 1.3-.3 2.3.5 2.6 1.7 1.6 8.2-2.1 13.5-6.4 19.6l-1.5 2.2s0 .1-.1.1a79.5 79.5 0 0 0-4.1 6.3c-1.6 3.6-2.5 7.7-2.5 12 0 15.9 12.6 28.3 28.6 28.3 15.7 0 28.6-12.7 28.6-28.3 0-6.5-2.6-13.1-7-18.1-.4-.4-.6-1-.5-1.5-.4-.6-.8-1.2-1.2-1.7-4-5.6-7.8-10.9-6.3-18.7.2-1.2 1.3-2 2.6-1.7 1.2.2 1.9 1.4 1.7 2.6-1.2 6 1.6 9.9 5.5 15.4.7 1 1.5 2 2.2 3.1 7.4 10.3 7.4 13.6 7.4 20.8-.1 17.8-14.8 32.4-33 32.4z"/><path fill="#75B72B" d="M60 101c-1.1 0-2.1-.9-2.2-2-.1-1.2.8-2.2 2-2.4 11.2-1 16.9-6.5 17.4-17 .1-1.2 1-2.1 2.3-2.1 1.2.1 2.1 1.1 2.1 2.3-.6 12.6-8 19.9-21.4 21.1-.1.1-.2.1-.2.1z"/></svg>