<svg xmlns="http://www.w3.org/2000/svg" viewBox="0 0 121 121"><path fill="#75B72B" d="M17.3 29.2c-5.8 0-10.8-5.1-10.8-10.9 0-5.8 5-10.9 10.8-10.9 6.1 0 10.8 4.8 10.8 10.9 0 6.1-4.7 10.9-10.8 10.9zm0-17.4c-3 0-6.5 2.8-6.5 6.5s3.4 6.5 6.5 6.5c3.7 0 6.4-2.8 6.4-6.5.1-3.7-2.7-6.5-6.4-6.5zM38.9 57.5c-6.1 0-10.8-4.8-10.8-10.9 0-5.8 5-10.9 10.8-10.9s10.8 5.1 10.8 10.9c0 6.1-4.7 10.9-10.8 10.9zm0-17.4c-3.7 0-6.5 3.4-6.5 6.5 0 3.7 2.8 6.5 6.5 6.5s6.5-2.8 6.5-6.5c0-3.1-2.8-6.5-6.5-6.5zM15.2 57.5c-.4 0-.7-.1-1.1-.3-1-.6-1.4-1.9-.8-3L39.2 8.6c.6-1.1 1.9-1.4 3-.8 1 .6 1.4 1.9.8 3L17.1 56.4c-.4.7-1.2 1.1-1.9 1.1zM15.2 113.5c-1.2 0-2.2-1-2.2-2.2V66.8c0-1.2 1-2.2 2.2-2.2s2.2 1 2.2 2.2v44.6c0 1.2-1 2.1-2.2 2.1zM24.4 113.5c-1.2 0-2.2-1-2.2-2.2V83.1c0-1.2 1-2.2 2.2-2.2s2.2 1 2.2 2.2v28.3c-.1 1.2-1 2.1-2.2 2.1zM43.2 113.5c-1.2 0-2.2-1-2.2-2.2V92.9c0-1.2 1-2.2 2.2-2.2s2.2 1 2.2 2.2v18.5c0 1.2-1 2.1-2.2 2.1z"/><path fill="#75B72B" d="M43.2 95C42 95 41 94 41 92.8c0-4.3-3.3-7.6-7.5-7.6-4.1 0-7 3.2-7 7.6 0 1.2-1 2.2-2.2 2.2s-2.2-1-2.2-2.2c0-6.8 4.9-12 11.3-12 6.6 0 11.9 5.4 11.9 12 .1 1.3-.9 2.2-2.1 2.2zM61 113.5c-1.2 0-2.2-1-2.2-2.2V66.8c0-1.2 1-2.2 2.2-2.2 1.2 0 2.2 1 2.2 2.2v44.6c0 1.2-1 2.1-2.2 2.1z"/><path fill="#75B72B" d="M89.1 113.5c-.7 0-1.4-.4-1.9-1L74.4 91.2H61c-1.2 0-2.2-1-2.2-2.2s1-2.2 2.2-2.2h14.6c.8 0 1.5.4 1.9 1L91 110.1c.6 1 .3 2.4-.7 3-.4.3-.8.4-1.2.4zM75.6 68.9H61c-1.2 0-2.2-1-2.2-2.2 0-1.2 1-2.2 2.2-2.2h14.6c1.2 0 2.2 1 2.2 2.2 0 1.3-1 2.2-2.2 2.2z"/><path fill="#75B72B" d="M75.6 91.2v-4.3c4.7 0 9.2-4.5 9.2-9.2 0-4.6-4.3-8.7-9.2-8.7v-4.3c7.3 0 13.5 6 13.5 13.1s-6.3 13.4-13.5 13.4zM72.4 34.1c-8.3 0-15.1-5.9-15.1-13.1 0-7.2 7.1-13.6 15.1-13.6C80.3 7.4 87 13.6 87 21c0 1.2-1 2.2-2.2 2.2-1.2 0-2.2-1-2.2-2.2 0-5-4.7-9.2-10.2-9.2-5.6 0-10.8 4.4-10.8 9.2 0 4.7 4.9 8.7 10.8 8.7 1.2 0 2.2 1 2.2 2.2s-1 2.2-2.2 2.2z"/><path fill="#75B72B" d="M72.4 56.4c-8.3 0-15.1-5.9-15.1-13.1 0-1.2 1-2.2 2.2-2.2 1.2 0 2.2 1 2.2 2.2 0 4.7 4.9 8.7 10.8 8.7 5.4 0 10.2-4.1 10.2-8.7 0-5-4.7-9.3-10.2-9.3-1.2 0-2.2-1-2.2-2.2s1-2.2 2.2-2.2c7.9 0 14.6 6.2 14.6 13.6-.2 7.2-6.8 13.2-14.7 13.2zM112.3 56.4c-1.2 0-2.2-1-2.2-2.2V35.7c0-1.2 1-2.2 2.2-2.2s2.2 1 2.2 2.2v18.5c0 1.2-1 2.2-2.2 2.2z"/><path fill="#75B72B" d="M103.1 56.4c-6.6 0-11.3-4.8-11.3-11.4 0-1.2 1-2.2 2.2-2.2s2.2 1 2.2 2.2c0 4.2 2.8 7.1 7 7.1 3.4 0 7-2.6 7-7.1 0-1.2 1-2.2 2.2-2.2s2.2 1 2.2 2.2c-.1 6.4-5.1 11.4-11.5 11.4z"/><path fill="#75B72B" d="M112.3 47.2c-1.2 0-2.2-1-2.2-2.2 0-3.7-3.3-7.1-7-7.1-4.4 0-7 3.6-7 7.1 0 1.2-1 2.2-2.2 2.2s-2.2-1-2.2-2.2c0-6.4 5-11.4 11.3-11.4 6 0 11.3 5.3 11.3 11.4.2 1.2-.8 2.2-2 2.2z"/><path fill="#75B72B" d="M112.3 37.9c-1.2 0-2.2-1-2.2-2.2 0-3.7-3.3-7.1-7-7.1-2.3 0-4.3 1-5.9 3a2.2 2.2 0 1 1-3.4-2.8c2.4-3 5.6-4.6 9.3-4.6 6 0 11.3 5.3 11.3 11.4.1 1.3-.9 2.3-2.1 2.3zM112.3 113.5c-1.2 0-2.2-1-2.2-2.2V83.1c0-1.2 1-2.2 2.2-2.2s2.2 1 2.2 2.2v28.3c0 1.2-1 2.1-2.2 2.1zM93.4 103.7c-1.2 0-2.2-1-2.2-2.2V83.1c0-1.2 1-2.2 2.2-2.2s2.2 1 2.2 2.2v18.5c0 1.2-1 2.1-2.2 2.1z"/><path fill="#75B72B" d="M103.1 113.5c-6.6 0-11.9-5.4-11.9-12 0-1.2 1-2.2 2.2-2.2s2.2 1 2.2 2.2c0 4.2 3.4 7.6 7.5 7.6 3.8 0 7-3.5 7-7.6 0-1.2 1-2.2 2.2-2.2s2.2 1 2.2 2.2c0 6.6-5.2 12-11.4 12z"/></svg>