<svg xmlns="http://www.w3.org/2000/svg" viewBox="0 0 121 121"><path fill="#75B72B" d="M36.8 79.5c-1.2 0-2.2-1-2.2-2.2V43.6c0-1.2 1-2.2 2.2-2.2 1.2 0 2.2 1 2.2 2.2v33.7c-.1 1.3-1 2.2-2.2 2.2z"/><path fill="#75B72B" d="M47 45.8H26c-1.2 0-2.2-1-2.2-2.2 0-1.2 1-2.2 2.2-2.2h21c1.2 0 2.2 1 2.2 2.2 0 1.2-1 2.2-2.2 2.2zM58.9 79.5c-1.2 0-2.2-1-2.2-2.2V43.6c0-1.2 1-2.2 2.2-2.2s2.2 1 2.2 2.2v33.7c0 1.3-1 2.2-2.2 2.2zM79.9 79.5c-1.2 0-2.2-1-2.2-2.2V43.6c0-1.2 1-2.2 2.2-2.2 1.2 0 2.2 1 2.2 2.2v33.7c0 1.3-1 2.2-2.2 2.2z"/><path fill="#75B72B" d="M79.9 62.7h-21c-1.2 0-2.2-1-2.2-2.2 0-1.2 1-2.2 2.2-2.2h21c1.2 0 2.2 1 2.2 2.2 0 1.2-1 2.2-2.2 2.2zM103.6 79.5c-7.7 0-14-8.5-14-19s6.3-19 14-19c3.7 0 7.5 2.2 10.9 6.2.8.9.6 2.3-.3 3.1-.9.8-2.3.6-3.1-.3-2.5-3-5.1-4.6-7.5-4.6-5.2 0-9.7 6.7-9.7 14.7s4.4 14.7 9.7 14.7c3.7 0 6-2.7 7.3-4.9.6-1 1.9-1.4 3-.8 1 .6 1.4 1.9.8 3-2.6 4.4-6.5 6.9-11.1 6.9z"/><path fill="#75B72B" d="M51.9 113.3c-.4 0-.7-.1-1.1-.3-7.3-4.1-14.6-8.3-21.9-12.5C21.7 96.3 14.4 92 7.1 88c-.7-.4-1.1-1.1-1.1-1.9V34.9c0-.8.4-1.5 1.1-1.9 7.3-4.1 14.6-8.3 21.8-12.5 7.3-4.2 14.6-8.4 21.9-12.5.7-.4 1.5-.4 2.1 0 14.2 8 23 13.2 38.3 22.3 1 .6 1.4 2 .8 3-.6 1-2 1.4-3 .8-14.9-8.9-23.6-14-37.2-21.7C45 16.3 38 20.3 31.1 24.3c-6.9 4-13.8 8-20.8 11.9v48.6c6.9 3.9 13.8 7.9 20.8 11.9 6.9 4 13.8 8 20.8 11.9 6.7-3.8 12.3-7.1 17.9-10.5 6-3.6 12-7.1 19.3-11.3 1-.6 2.4-.2 3 .8.6 1 .2 2.4-.8 3-7.4 4.2-13.3 7.7-19.3 11.3-5.9 3.5-11.8 7.1-19.1 11.1-.3.2-.7.3-1 .3z"/></svg>