<svg xmlns="http://www.w3.org/2000/svg" viewBox="0 0 121 121"><path fill="#75B72B" d="M95.8 82.3h-.4c-1.2-.2-2-1.4-1.7-2.6.5-2.7 1-5.2 1-7.7 0-18.9-15.2-34.3-34-34.3-19 0-34.5 15.4-34.5 34.3 0 1.6.4 3.9 1 6.6.3 1.2-.4 2.3-1.6 2.6-1.2.3-2.4-.4-2.6-1.6-.8-3.1-1.1-5.6-1.1-7.6 0-21.3 17.4-38.6 38.9-38.6 21.1 0 38.3 17.3 38.3 38.6 0 2.9-.6 5.8-1.1 8.6-.2.9-1.1 1.7-2.2 1.7zM60.8 31.1c-1.2 0-2.2-1-2.2-2.2v-19c0-1.2 1-2.2 2.2-2.2 1.2 0 2.2 1 2.2 2.2v19c-.1 1.2-1 2.2-2.2 2.2z"/><path fill="#75B72B" d="M30.6 43.6c-.6 0-1.1-.2-1.5-.6L15.5 29.4c-.8-.9-.8-2.2 0-3.1.9-.9 2.2-.8 3.1 0l13.5 13.6c.8.9.8 2.2 0 3.1-.4.4-1 .6-1.5.6zM17.6 74.1H2.5c-1.2 0-2.2-1-2.2-2.2s1-2.2 2.2-2.2h15.1c1.2 0 2.2 1 2.2 2.2s-1 2.2-2.2 2.2zM90.4 43.6c-.6 0-1.1-.2-1.5-.6-.9-.8-.9-2.2 0-3.1l13.5-13.6c.8-.9 2.2-.9 3.1 0 .9.8.9 2.2 0 3.1L92 43c-.4.4-1 .6-1.6.6zM118.5 74.1h-15.1c-1.2 0-2.2-1-2.2-2.2s1-2.2 2.2-2.2h15.1c1.2 0 2.2 1 2.2 2.2s-1 2.2-2.2 2.2zM21.4 56.7c-.3 0-.5 0-.8-.1L16.3 55c-1.1-.4-1.7-1.7-1.3-2.8.4-1.1 1.7-1.7 2.8-1.3l4.3 1.6c1.1.4 1.7 1.7 1.3 2.8-.3.9-1.1 1.4-2 1.4zM44 34.4c-.9 0-1.7-.5-2-1.4l-1.6-4.3c-.4-1.1.2-2.4 1.3-2.8 1.1-.4 2.4.2 2.8 1.3l1.6 4.3c.4 1.1-.2 2.4-1.3 2.8-.2 0-.5.1-.8.1zM99.6 56.7c-.9 0-1.7-.5-2-1.4-.4-1.1.1-2.4 1.3-2.8l4.3-1.6c1.1-.4 2.4.1 2.8 1.3.4 1.1-.1 2.4-1.3 2.8l-4.3 1.6c-.3 0-.5.1-.8.1zM76.9 34.4c-.3 0-.5 0-.8-.1-1.1-.4-1.7-1.7-1.3-2.8l1.6-4.3c.4-1.1 1.6-1.7 2.8-1.3 1.1.4 1.7 1.7 1.3 2.8L79 33c-.3.8-1.2 1.4-2.1 1.4zM60.8 92.1c-5 0-9.2-4.2-9.2-9.3 0-4.9 4-8.7 9.2-8.7 5 0 8.7 3.7 8.7 8.7-.1 5.2-3.9 9.3-8.7 9.3zm0-13.6c-2.4 0-4.8 1.6-4.8 4.3 0 2.6 2.3 4.9 4.8 4.9 2.7 0 4.3-2.5 4.3-4.9 0-2.6-1.8-4.3-4.3-4.3zM52.1 70.3c-.9 0-1.8-.6-2.1-1.5l-.4-1.2c-.4-1.1-.8-2.2-.8-3.3 0-6.6 5.3-12 11.9-12 6.2 0 11.3 5.5 11.3 12 0 1.6-.7 3.6-1.3 4.8-.5 1.1-1.8 1.5-2.9 1-1.1-.5-1.5-1.8-1-2.9.5-.9.9-2.2.9-2.8 0-4.1-3.2-7.6-7-7.6-4.2 0-7.5 3.3-7.5 7.6 0 .4.2 1 .5 1.9l.4 1.3c.4 1.1-.2 2.4-1.4 2.7h-.6z"/><path fill="#75B72B" d="M77.5 85c-1.2 0-2.2-1-2.2-2.2s1-2.2 2.2-2.2c.6 0 1.9-.4 2.8-.9 4.3-2.4 4.2-7 2.8-10.2-.9-1.4-2.6-2.6-4.6-3.1-1.8-.4-3.7-.1-5.2.8-.9.5-1.9 1.4-2.8 2.4l-3.1-3c1.2-1.2 2.4-2.4 3.8-3.1 2.3-1.5 5.3-2 8.3-1.3 3.1.7 5.8 2.7 7.5 5.3 2.9 6.5 1 13-4.6 16.1-1.3.7-3.3 1.4-4.9 1.4z"/><path fill="#75B72B" d="M76.7 104c-2 0-3.9-.5-5.5-1.3-.2-.1-.4-.3-.6-.4L67.3 99c-.8-.9-.8-2.2 0-3.1.9-.9 2.2-.8 3.1 0l3 3c3.2 1.5 7.7.7 9.8-3.1.9-1.8 1.1-4.1.4-6.1-.4-1.1-1.3-2.6-3.1-3.4-.2-.1-.5-.3-.7-.5-.4-.4-.7-.5-1.6-.7-.4-.1-.8-.2-1.3-.4-1.1-.4-1.7-1.6-1.4-2.8.4-1.1 1.6-1.7 2.8-1.4l1.1.3c1 .3 2.1.6 3.2 1.6 2.4 1.2 4.2 3.2 5.1 5.8 1.1 3 .9 6.6-.6 9.5-2.4 4.4-6.5 6.3-10.4 6.3z"/><path fill="#75B72B" d="M60.8 113.3c-6.8 0-11.9-4.9-11.9-11.4 0-1.7.4-2.9.9-4.1l.3-.9c.4-1.2 1.6-1.8 2.7-1.4 1.1.4 1.8 1.6 1.4 2.7l-.3 1c-.4 1-.6 1.7-.6 2.7 0 4.1 3.2 7.1 7.5 7.1 3.4 0 7-2.6 7-7.1 0-.6-.4-1.9-.9-2.8-.5-1.1-.1-2.4 1-2.9s2.4-.1 2.9 1c.6 1.2 1.3 3.2 1.3 4.8 0 6.3-5 11.3-11.3 11.3z"/><path fill="#75B72B" d="M44.3 104c-3.9 0-8-1.8-10.3-6-1.5-3-1.7-6.6-.6-9.6.9-2.6 2.7-4.6 5.1-5.8 1.5-1.4 3.6-2 5-2 1.2 0 2.2 1 2.2 2.2s-1 2.2-2.2 2.2c-.5 0-1.6.3-2.2 1-.2.2-.4.3-.7.5-1.9.8-2.7 2.3-3.1 3.4-.7 1.9-.5 4.2.4 6.2 2.1 3.7 6.5 4.4 9.7 3 .5-.5 1-.9 1.6-1.3.5-.3.9-.7 1.4-1.1.8-.9 2.2-.9 3.1 0 .9.8.9 2.2 0 3.1-.6.6-1.2 1.1-1.8 1.6-.5.3-.9.7-1.4 1.2-.2.2-.4.3-.6.4-1.7.5-3.6 1-5.6 1z"/><path fill="#75B72B" d="M43.5 85c-2.2 0-3.6-.7-4.8-1.3-5.6-3.1-7.5-9.6-4.8-15.9 1.8-2.9 4.5-4.9 7.6-5.6 3-.7 6-.2 8.5 1.4 1.2.6 2.4 1.8 3.6 3 .8.9.9 2.3 0 3.1-.8.8-2.2.9-3 0l-.1-.1c-.9-.9-1.9-1.9-2.6-2.3-1.7-1-3.5-1.3-5.4-.9-2 .5-3.7 1.7-4.8 3.4-1.3 2.9-1.4 7.6 3 10 .9.4 1.6.8 2.7.8 1.2 0 2.2 1 2.2 2.2s-.9 2.2-2.1 2.2z"/></svg>