<svg xmlns="http://www.w3.org/2000/svg" viewBox="0 0 237.9 305.3"><path fill="#999" d="M114.7 152.2c-.6-3.2-3.6-5.2-6.7-6.8-5.2-2.7-9.1-6.8-13.2-11-1.3-1.4-2.7-2.8-4.1-4.2-5.1-5-9.5-6.5-12.7-4.5-2.3 1.5-2.5 4.3-2.6 6.4v.8c-.1.8-.4 1.3-.8 1.6-1.1.8-3.3.3-5.1-.1-.7-.2-1.4-.3-2-.4-2.7-.3-5.5-.1-8 .7.8.3 1.4.9 1.9 1.5 1.9-.4 3.8-.5 5.8-.3.5.1 1.2.2 1.9.3 2.3.5 4.9 1 6.6-.2.9-.6 1.4-1.6 1.6-3 0-.2 0-.3.1-.5v-.4c.1-1.8.3-3.9 1.7-4.8 3.1-2 7.8 1.8 10.3 4.3 1.4 1.4 2.8 2.8 4.1 4.2 4 4.2 8.2 8.5 13.7 11.4 2.7 1.4 5.2 3 5.7 5.4.3 1.6-.3 3.2-1.8 4.5-1.8 1.6-4.3 2.2-6.1 1.7-3.7-1.2-5.9-4.6-8.1-7.8-.6-.9-1.2-1.8-1.8-2.6-1-1.4-2-2.5-2.9-3.4-1.3-1.2-2.7-2.4-4.3-2.4-.8 0-1.5.4-1.9 1-.5.7-.6 1.6-.3 2.4.4 1 1.1 1.8 1.8 2.6 5.8 6.9 6.4 15.2 1.8 22.3a4.33 4.33 0 0 1 .2 3.1c.3-.3.5-.6.7-.9 5.9-8.1 5.4-17.7-1.3-25.7-.5-.6-1.1-1.2-1.4-1.9-.1-.3-.1-.5 0-.6 0 0 .1-.1.3-.1.9 0 2.3 1.3 3 1.9.9.8 1.7 1.8 2.7 3.1.6.8 1.1 1.6 1.7 2.5 2.3 3.6 4.7 7.3 9.1 8.6 2.5.8 5.7 0 8-2.1 2-2.1 2.9-4.4 2.4-6.6z"/><path fill="#999" d="M84 207.6h-.2c-.5-.1-.9-.6-.7-1.2.4-2 .9-3.9 1.4-5.8 1.3-5.2 2.6-10.6 3.2-16 1.1-11.1.5-19.6-1.9-26.7-2.7-7.8-8.9-14.5-17-18.5-9.9-4.9-22.6-5.9-33.8-2.6-4.4 1.3-8.4 3.2-11.8 5.6-12.6 8.7-18.5 23.7-14.9 38.3 1 4.1 2.5 8.2 4 12.2 1.6 4.4 3.3 8.9 4.3 13.5.1.5-.2 1-.7 1.2-.5.1-1-.2-1.2-.7-1-4.5-2.6-9-4.2-13.3-1.5-4-3-8.2-4-12.4-3.7-15.3 2.4-31.2 15.7-40.3 3.7-2.5 7.8-4.5 12.4-5.8 11.7-3.4 24.8-2.4 35.2 2.7 8.6 4.2 15.1 11.4 17.9 19.6 3.4 9.7 2.8 20.4 2 27.6-.6 5.6-1.9 11-3.2 16.3-.5 1.9-1 3.9-1.4 5.8-.3.2-.7.5-1.1.5zM67.6 198.2z"/><g fill="#999"><path d="M82.7 221.1c0 .4-.1.8-.2 1.2a4.33 4.33 0 0 1 .2 3.1c.1.4.1.8.1 1.2 0 .5-.1 1.1-.3 1.5.1.4.2.9.2 1.3v.1c1-4.4 1.6-8.8 1.8-12.8 0-.5-.4-1-.9-1s-1 .4-1 .9c0 .6-.1 1.2-.1 1.9.2.5.3 1 .3 1.6-.1.3 0 .7-.1 1zM74 248.2c-.7 0-1.4-.2-1.9-.5-.7.7-1.5 1.4-2.3 2-8.5 6.1-19.1 5.7-24.7 4.9-1.5-.2-2.9-.5-4.3-.9-.5-.1-1.1.2-1.2.7-.1.5.2 1.1.7 1.2 1.4.4 2.9.7 4.5.9 1.8.3 4.1.5 6.6.5 5.9 0 13.2-1.2 19.5-5.7 1.2-.9 2.3-1.9 3.3-3.1H74z"/></g><path fill="#999" d="M80.9 242.7c-.2.8-.7 1.5-1.3 2 1.3 3.5 1.9 7.8 1.8 12.6-10.3-1.8-16.6-4.5-16.7-4.5-.5-.2-1.1 0-1.3.5-.2.5 0 1.1.5 1.3.3.1 7.1 3 18.3 4.8h.2c.2 0 .4-.1.6-.2.2-.2.3-.4.4-.7.1-6.1-.7-11.5-2.5-15.8zM19.1 262.2c-.2 0-.4-.1-.6-.2-.2-.2-.4-.4-.4-.6-.8-5.1-.4-12.1 1.2-17.7-2.4-9.1-3.6-18.7-3.4-27.2 0-.5.4-1 1-1 .5 0 1 .5 1 1-.2 8.3 1 17.9 3.4 26.9v.5c-1.4 5-1.9 11.3-1.3 16.1 14.3-2.8 20.1-6.2 20.1-6.2.5-.3 1.1-.1 1.3.3.3.5.1 1.1-.3 1.3-.2.2-6.3 3.8-21.8 6.7 0 .1-.1.1-.2.1zM53.6 143.4l-1.7-.9 2.6-5.2c.2-.5.8-.7 1.3-.4.5.2.7.8.4 1.3l-2.6 5.2z"/><path fill="#999" d="M58.8 141s-.1 0 0 0l-7.7-.4c-.5 0-1-.5-.9-1 0-.5.5-1 1-.9l7.7.4c.5 0 1 .5.9 1-.1.5-.5.9-1 .9zM84.3 291.1c-.2 0-.4-.1-.6-.2-.4-.3-.6-.9-.2-1.4 4.4-6.3 7.8-15 9.1-23.3.1-.5.6-.9 1.1-.8.5.1.9.6.8 1.1-1.4 8.6-4.9 17.7-9.4 24.1-.2.4-.5.5-.8.5zM94 263.1c-.1 0-.1 0 0 0-.6-.1-1-.5-1-1.1.6-6.1.2-11.3-1.1-16-.2-.5.1-1.1.7-1.2.5-.2 1.1.1 1.2.7 1.4 4.9 1.8 10.3 1.2 16.7-.1.5-.5.9-1 .9zM91.3 243c-.4 0-.8-.2-.9-.6-.5-1.4-1.2-2.8-2-4-.3-.5-.2-1.1.3-1.3.5-.3 1.1-.2 1.3.3.9 1.3 1.6 2.8 2.2 4.4.2.5-.1 1.1-.6 1.3 0-.1-.2-.1-.3-.1z"/><path fill="#999" d="M50.3 305.3c-13.8 0-31.1-1.7-35-6.6-8-8.5-11.8-19.7-13.6-27.6-2.4-10.5-2.2-20.6.5-29.2 1.5-4.8 4.3-9.7 8.4-14.6 2.1-2.5 4.8-6.3 4.7-10.7a1 1 0 0 1 2 0c.1 5-2.9 9.3-5.1 12-3.9 4.7-6.6 9.4-8 13.9-2.6 8.2-2.7 18-.5 28.1 1.7 7.7 5.4 18.5 13.1 26.7l.1.1c2.8 3.5 16.8 6 34 5.9 16.6-.1 30-2.5 32.7-5.9l.1-.1c7.7-8.2 11.4-19.1 13.1-26.7 2.3-10.2 2.1-19.9-.5-28.1-1.4-4.5-4.1-9.2-8-13.9-2.3-2.7-5.3-7-5.1-12 0-.5.5-1 1-1s1 .5 1 1c-.1 4.4 2.6 8.2 4.7 10.7 4 4.9 6.9 9.8 8.4 14.6 2.7 8.6 2.9 18.6.5 29.2-2 7.9-5.8 19.1-13.8 27.6-3.9 4.8-20.2 6.6-34.2 6.6h-.5zM49.8 210.7c-9.5 0-18.4-.4-25.1-1.2-9.9-1.2-11.2-2.6-11.2-3.9 0-.6.4-1.2 1.1-1.6.5-.3 1.1-.2 1.3.3.3.4.2 1-.3 1.3 2.2 1.4 14.7 3.2 34.2 3.2 19.4 0 32-1.8 34.2-3.2-.5-.3-.6-.9-.4-1.3.3-.5.9-.6 1.3-.4.8.5 1.2 1 1.2 1.7 0 1.4-1.4 2.8-11.2 3.9-6.7.8-15.6 1.2-25.1 1.2z"/><path fill="#999" d="M49.8 213.6c-9.5 0-18.4-.4-25.1-1.2-11-1.3-11-2.9-11-3.7 0-.4.3-.7.7-.7.4 0 .7.3.7.7.9 1.4 13.7 3.5 34.6 3.5 7 0 13.8-.2 19.7-.7.4 0 .8.3.8.7 0 .4-.3.8-.7.8-5.7.4-12.6.6-19.7.6z"/><path fill="#999" d="M49.9 216.6c-7.1 0-13.9-.2-19.8-.7-.4 0-.7-.4-.7-.8s.4-.7.8-.7c5.8.5 12.6.7 19.7.7 21 0 33.7-2.1 34.6-3.5 0-.4.3-.7.7-.7.4 0 .7.3.7.7 0 .8 0 2.4-11 3.7-6.6.9-15.5 1.3-25 1.3z"/><path fill="#999" d="M49.8 220c-9.5 0-18.4-.4-25.1-1.2-9.9-1.2-11.2-2.6-11.2-3.9v-9.2a1 1 0 0 1 2 0v9.1c1.4 1.4 14.2 3.4 34.4 3.4s33-2 34.4-3.4v-9.1a1 1 0 0 1 2 0v9.2c0 1.4-1.4 2.8-11.2 3.9-6.9.7-15.8 1.2-25.3 1.2z"/><g fill="#999"><path d="M80.7 295c-1.4-.6-3.6-1.2-6.4-1.7-.3.5-.7.9-1.1 1.3 3.1.5 5.5 1.1 7 1.8.4.2.8 0 1-.4.1-.4-.1-.8-.5-1zM54.6 291.5c-1.4 0-2.9-.1-4.4-.1-14.2 0-26.1 1.8-30.5 3.6-.4.2-.6.6-.4 1 .1.3.4.5.7.5.1 0 .2 0 .3-.1 4.3-1.7 16-3.5 30-3.5 1.7 0 3.4 0 5 .1-.4-.5-.6-1-.7-1.5z"/></g><g fill="#999"><path d="M88.2 34.7c-.3.3-.6.4-1 .4s-.7-.1-1-.4c-.3-.3-.4-.6-.4-1v-.5c0-.3 0-1.3.1-2.9 0-1.3.1-2.8.1-4.4-.9.1-2 .2-3.1.3-1.4.1-2.3.2-2.7.2-.5 0-1.2.1-1.9.1-.8 0-1.6 0-2.3-.1-1-.1-1.7-.5-2.1-1.2-.4-.6-.5-1.5-.2-2.8.2-.8.3-1.5.3-1.9 0-.4.1-1.2.2-2.3.1-1.1.2-2.2.2-3.3 0-1.1.1-2.4.1-3.9V7.7 5 2.1c0-.4.1-.7.4-1 .3-.3.6-.4 1-.4s.7.1 1 .4c.3.3.4.6.4 1v8.7c0 1.6 0 2.9-.1 4.1 0 1.1-.1 2.2-.2 3.4-.1 1.2-.2 2-.2 2.4 0 .5-.2 1.2-.4 2.1 0 .2-.1.4-.1.6.5.1 1.1.1 1.8.1s1.2 0 1.7-.1c.5 0 1.4-.1 2.7-.2l3.3-.3c0-1.4-.1-2.7-.2-4.1-.2-2-.3-3.4-.4-4.4A122.69 122.69 0 0 0 83.8 5l-.3-1.5c0-.4 0-.8.3-1.1.2-.3.5-.5.9-.6.4-.1.8 0 1.1.2.3.2.5.5.6.9l.2 1.5c.2 1 .5 2.6.8 4.8.3 2.2.6 3.9.7 4.9.1 1 .2 2.5.4 4.5.1 1.4.2 2.8.2 4.2h1.6c.8 0 1.5-.1 1.9-.1h.7c.4 0 .7.1 1 .3.3.3.5.6.5 1s-.1.8-.3 1.1c-.3.3-.6.5-1 .5l-.7.1c-.6 0-1.1.1-1.7.1-.8 0-1.5.1-2 .1v4.7c0 1.6-.1 2.6-.1 2.9v.4c0 .2-.1.5-.4.8z"/><path d="M87.1 35.2c-.4 0-.8-.2-1.1-.5-.3-.3-.5-.7-.5-1.1v-.5c0-.3 0-1.3.1-2.9 0-1.3.1-2.7.1-4.3l-3 .3c-1.4.1-2.3.2-2.7.2-.5 0-1.2.1-1.9.1-.8 0-1.6 0-2.3-.1-1-.1-1.8-.5-2.2-1.2-.4-.6-.5-1.6-.3-2.9.2-.8.3-1.4.3-1.8l.2-2.3c.1-1.1.2-2.2.2-3.3 0-1.1.1-2.5.1-3.9V7.5 4.8 2.1c0-.4.2-.8.5-1.1.3-.3.7-.5 1.1-.5.4 0 .8.2 1.1.5.3.3.5.7.5 1.1v8.7c0 1.5 0 2.9-.1 4.1 0 1.1-.1 2.3-.2 3.4-.1 1.2-.2 2-.2 2.4 0 .5-.2 1.2-.4 2.1 0 .2 0 .3-.1.5.5.1 1 .1 1.7 0 .7 0 1.2 0 1.7-.1.5 0 1.4-.1 2.7-.2l3.2-.3c0-1.3-.1-2.7-.2-4-.2-1.9-.3-3.4-.4-4.4a122.69 122.69 0 0 0-1.4-9.4l-.3-1.5c0-.4.1-.8.3-1.2.2-.4.6-.6 1-.7.4-.1.8 0 1.2.3.4.2.6.6.7 1l.2 1.5c.2 1 .5 2.6.8 4.8.3 2.3.6 3.9.7 4.9.1 1 .2 2.5.4 4.5l.2 4.1h1.4c.8 0 1.4-.1 1.8-.1H92.9c.4 0 .7.1 1 .4.3.3.5.6.5 1.1 0 .4-.1.8-.4 1.2-.3.3-.6.5-1.1.5l-.7.1c-.6 0-1.1.1-1.7.1-.8 0-1.4.1-1.8.1v4.6c0 1.6-.1 2.6-.1 2.9v.4c0 .4-.2.8-.5 1.1-.2.1-.5.2-1 .2zm-1.2-9.5v.1c0 1.6 0 3.1-.1 4.4 0 1.6-.1 2.6-.1 2.9v.5c0 .4.1.7.4.9.3.3.6.4.9.4.4 0 .7-.1 1-.4.3-.3.4-.6.4-.9v-.4c0-.3 0-1.3.1-2.9v-4.8h.1c.5 0 1.1 0 2-.1.6 0 1.1 0 1.7-.1l.7-.1c.4 0 .7-.1.9-.4.2-.3.3-.6.3-1s-.2-.7-.5-.9c-.3-.2-.6-.3-1-.3H92c-.4 0-1 .1-1.8.1h-1.7l-.2-4.3c-.2-2-.3-3.5-.4-4.5-.1-1-.3-2.6-.7-4.9-.3-2.2-.6-3.8-.8-4.8l-.2-1.5c0-.2-.2-.5-.5-.7-.3-.2-.7-.3-1-.2-.4.1-.7.2-.9.5-.2.3-.3.7-.2 1l.3 1.5c.2 1 .5 2.6.8 4.8.3 2.2.5 3.8.6 4.8.1 1 .2 2.5.4 4.4.1 1.4.2 2.8.2 4.1v.1h-.1l-3.3.3c-1.4.1-2.3.2-2.7.2-.4 0-1 .1-1.7.1s-1.3 0-1.8-.1h-.1v-.1c0-.2 0-.4.1-.6.2-.9.3-1.6.4-2.1 0-.5.1-1.3.2-2.4.1-1.1.2-2.3.2-3.4 0-1.2.1-2.5.1-4.1V7.6 4.8 2.1c0-.4-.1-.7-.4-.9-.3-.3-.6-.4-1-.4s-.7.1-.9.4c-.3.3-.4.6-.4 1v8.7c0 1.5 0 2.8-.1 3.9 0 1.1-.1 2.2-.2 3.4l-.2 2.3c0 .4-.1 1-.3 1.9-.2 1.2-.2 2.2.2 2.7.4.6 1.1 1 2.1 1.1.7.1 1.4.2 2.2.1.8 0 1.4 0 1.9-.1.5 0 1.4-.1 2.7-.2 1.1-.1 2.2-.2 3.1-.3zM107.1 37.8c-.1 0-.3 0-.4-.1-1.6-.4-2.9-1.1-4-2.1s-1.9-1.9-2.5-2.9c-.6-1-1.1-2.2-1.6-3.8-.4-1.5-.6-3.3-.7-5.4 0-2.1 0-3.6.1-4.5.1-.9.4-2.3.8-4.1.4-1.8.7-3.2 1-4.1.3-.9 1-2.2 1.9-3.9 1-1.8 1.7-2.9 2.3-3.6.6-.6 1.4-1.2 2.5-1.9a7.3 7.3 0 0 1 3.3-1.3c1-.1 2.1 0 3.4.3 1.1.3 2 .7 2.6 1.1.7.4 1.6 1.3 2.7 2.7 1.1 1.4 1.8 2.5 2.2 3.4.3.8.6 2.1 1 3.8.3 1.7.5 3.3.6 4.7.1 1.4.1 2.6.1 3.5 0 1-.1 2.4-.3 4.2-.2 1.8-.4 3.1-.6 4-.2.9-.6 2.2-1.3 3.9-.7 1.8-1.3 3-1.8 3.5-.5.6-1.3 1.2-2.4 2-1.2.8-2.1 1.2-2.6 1.4l-1.5.3c-.5 0-1.3 0-2.2-.1l-1.3-.1c-.7 0-1.1-.3-1.3-.9zm4.6-1.9c.2 0 .5-.1.7-.2a12.05 12.05 0 0 0 3.7-2.4c.3-.3.7-1.2 1.3-2.7.6-1.6 1-2.7 1.2-3.4.2-.8.3-2 .5-3.7.2-1.8.3-3.1.3-3.9 0-.9 0-2-.1-3.3 0-1.3-.2-2.7-.5-4.2-.3-1.6-.6-2.7-.8-3.3-.2-.6-.8-1.5-1.7-2.6a9.1 9.1 0 0 0-1.9-2c-.4-.2-1-.5-1.9-.8-.8-.2-1.6-.3-2.2-.2a8.83 8.83 0 0 0-4.1 2.4c-.4.4-1 1.4-1.9 2.9-.9 1.6-1.4 2.7-1.7 3.5-.3.8-.6 2-.9 3.8-.4 1.7-.6 3-.7 3.8-.1.8-.2 2.2-.1 4.1 0 1.9.2 3.5.6 4.7.3 1.3.7 2.3 1.2 3 .5.7 1.1 1.5 1.9 2.2.8.7 1.8 1.2 2.9 1.4 1.2.3 1.9.5 2.2.4l.7-.1c.6-.1 1 .2 1.3.6z"/><path d="M111.1 39.1c-.4 0-1 0-1.6-.1l-1.3-.1c-.6 0-1-.3-1.3-.9-.1 0-.2 0-.4-.1-1.6-.4-2.9-1.2-4.1-2.1-1.1-1-1.9-1.9-2.5-2.9-.6-1-1.1-2.2-1.6-3.8-.4-1.5-.6-3.3-.7-5.5 0-2.1 0-3.6.1-4.6.1-.9.4-2.3.8-4.1.4-1.8.7-3.2 1-4.1.3-.9 1-2.2 1.9-4 1-1.8 1.7-3 2.3-3.6.6-.6 1.4-1.3 2.5-1.9 1.2-.8 2.3-1.2 3.4-1.4 1-.1 2.2 0 3.4.3 1.1.3 2 .7 2.7 1.1.7.4 1.6 1.3 2.8 2.8 1.1 1.4 1.8 2.6 2.2 3.4.3.8.6 2.1 1 3.8.3 1.7.5 3.3.6 4.7.1 1.4.1 2.6.1 3.5 0 1-.1 2.4-.3 4.2-.2 1.8-.4 3.1-.6 4-.2.9-.6 2.2-1.3 3.9-.7 1.8-1.3 3-1.8 3.6-.5.6-1.3 1.2-2.5 2s-2.1 1.2-2.7 1.4l-1.5.3c-.1.2-.3.2-.6.2zM110.7.2c-.3 0-.6 0-.9.1-1 .1-2.1.6-3.3 1.3-1.1.7-1.9 1.3-2.5 1.9-.5.6-1.3 1.8-2.3 3.6-.9 1.7-1.6 3.1-1.9 3.9-.3.9-.6 2.2-1 4-.4 1.8-.7 3.1-.8 4.1-.1.9-.2 2.4-.1 4.5 0 2.1.3 3.9.7 5.4.4 1.5.9 2.8 1.5 3.7a11.69 11.69 0 0 0 6.5 4.9c.1 0 .3.1.4.1h.1v.1c.2.5.6.8 1.1.8l1.3.1c.9.1 1.7.1 2.2.1l1.5-.3c.5-.2 1.4-.6 2.6-1.4a11 11 0 0 0 2.4-1.9c.5-.5 1.1-1.7 1.8-3.5.7-1.7 1.1-3 1.3-3.9.2-.8.3-2.2.6-4 .2-1.8.3-3.2.3-4.2s0-2.1-.1-3.5-.3-3-.6-4.7c-.3-1.7-.6-2.9-.9-3.7-.4-.9-1.1-2-2.1-3.4-1.1-1.4-2.1-2.3-2.7-2.7-.6-.4-1.5-.7-2.6-1.1-.9-.1-1.7-.3-2.5-.3zm1 35.9c-.3-.5-.8-.7-1.3-.7l-.7.1h-.1c-.4 0-1.1-.1-2.1-.4a7.3 7.3 0 0 1-2.9-1.5c-.8-.8-1.5-1.5-2-2.2-.5-.7-.9-1.7-1.2-3-.4-1.2-.6-2.8-.6-4.7 0-1.9 0-3.3.1-4.1.1-.8.3-2.1.7-3.8.3-1.7.6-3 .9-3.8.2-.7.8-1.9 1.7-3.5.8-1.6 1.5-2.5 1.9-3 .4-.4 1-.9 1.9-1.5.8-.5 1.6-.8 2.2-.9a7.13 7.13 0 0 1 4.1 1c.4.2 1 .9 1.9 2.1.9 1.2 1.5 2 1.8 2.7.2.7.5 1.8.8 3.4.3 1.6.5 3 .5 4.3.1 1.3.1 2.4.1 3.4 0 .9-.1 2.2-.3 4-.2 1.7-.4 2.9-.5 3.7-.2.7-.6 1.9-1.2 3.4s-1 2.4-1.3 2.8a12.59 12.59 0 0 1-3.7 2.4c-.2-.4-.4-.3-.7-.2zm-1.2-1c.5 0 1 .2 1.3.6.2 0 .4-.1.6-.2.3-.1.9-.4 1.8-.9.9-.6 1.5-1 1.7-1.3.3-.3.7-1.2 1.3-2.7.6-1.5 1-2.7 1.2-3.4.2-.8.3-2 .5-3.7.2-1.7.3-3.1.3-3.9 0-.9 0-2-.1-3.3 0-1.3-.2-2.7-.5-4.2s-.6-2.7-.8-3.3c-.2-.6-.8-1.5-1.7-2.6-.9-1.1-1.5-1.8-1.9-2-.4-.2-1-.5-1.9-.8-.8-.2-1.5-.3-2.1-.2a6 6 0 0 0-2.1.9c-.9.6-1.5 1.1-1.9 1.5-.4.4-1 1.4-1.8 2.9-.9 1.6-1.4 2.7-1.7 3.4-.3.8-.6 2-.9 3.7-.4 1.7-.6 3-.7 3.8-.1.8-.2 2.2-.1 4.1 0 1.9.2 3.5.6 4.7.3 1.3.7 2.3 1.1 3 .4.7 1.1 1.4 1.9 2.2.8.7 1.7 1.1 2.8 1.4 1.1.3 1.9.5 2.2.4l.7-.1h.2z"/><g><path d="M140.8 34.7c-.3.3-.6.4-1 .4s-.7-.1-1-.4c-.3-.3-.4-.6-.4-1v-.5c0-.3 0-1.3.1-2.9 0-1.3.1-2.8.1-4.4-.9.1-2 .2-3.1.3-1.4.1-2.3.2-2.7.2-.5 0-1.2.1-1.9.1-.8 0-1.6 0-2.3-.1-1-.1-1.7-.5-2.1-1.2-.4-.6-.5-1.5-.2-2.8.2-.8.3-1.5.3-1.9 0-.4.1-1.2.2-2.3.1-1.1.2-2.2.2-3.3 0-1.1.1-2.4.1-3.9V7.7 5 2.1c0-.4.1-.7.4-1 .3-.3.6-.4 1-.4s.7.1 1 .4c.3.3.4.6.4 1v8.7c0 1.6 0 2.9-.1 4.1 0 1.1-.1 2.2-.2 3.4-.1 1.2-.2 2-.2 2.4 0 .5-.2 1.2-.4 2.1 0 .2-.1.4-.1.6.5.1 1.1.1 1.8.1s1.2 0 1.7-.1c.5 0 1.4-.1 2.7-.2l3.3-.3c0-1.4-.1-2.7-.2-4.1-.2-2-.3-3.4-.4-4.4a122.69 122.69 0 0 0-1.4-9.4l-.3-1.5c0-.4 0-.8.3-1.1.2-.3.5-.5.9-.6.4-.1.8 0 1.1.2.3.2.5.5.6.9l.2 1.5c.2 1 .5 2.6.8 4.8.3 2.2.6 3.9.7 4.9.1 1 .2 2.5.4 4.5.1 1.4.2 2.8.2 4.2h1.6c.8 0 1.5-.1 1.9-.1h.7c.4 0 .7.1 1 .3.3.3.5.6.5 1s-.1.8-.3 1.1c-.3.3-.6.5-1 .5l-.7.1c-.6 0-1.1.1-1.7.1-.8 0-1.5.1-2 .1v4.7c0 1.6-.1 2.6-.1 2.9v.4c.1.2-.1.5-.4.8z"/><path d="M139.8 35.2c-.4 0-.8-.2-1.1-.5-.3-.3-.5-.7-.5-1.1v-.5c0-.3 0-1.3.1-2.9 0-1.3.1-2.7.1-4.3l-3 .3c-1.4.1-2.3.2-2.7.2-.5 0-1.2.1-1.9.1-.8 0-1.6 0-2.3-.1-1-.1-1.8-.5-2.2-1.2-.4-.6-.5-1.6-.3-2.9.2-.8.3-1.4.3-1.8l.2-2.3c.1-1.1.2-2.2.2-3.3 0-1.1.1-2.5.1-3.9V7.5 4.8 2.1c0-.4.2-.8.5-1.1.3-.3.7-.5 1.1-.5.4 0 .8.2 1.1.5.3.3.5.7.5 1.1v8.7c0 1.5 0 2.9-.1 4.1 0 1.1-.1 2.3-.2 3.4-.1 1.2-.2 2-.2 2.4 0 .5-.2 1.2-.4 2.1 0 .2 0 .3-.1.5.5.1 1 .1 1.7 0 .7 0 1.2 0 1.7-.1.5 0 1.4-.1 2.7-.2l3.2-.3c0-1.3-.1-2.7-.2-4-.2-1.9-.3-3.4-.4-4.4a122.69 122.69 0 0 0-1.4-9.4l-.3-1.5c0-.4.1-.8.3-1.2.2-.4.6-.6 1-.7.4-.1.8 0 1.2.3.4.2.6.6.7 1l.2 1.5c.2 1 .5 2.6.8 4.8.3 2.3.6 3.9.7 4.9.1 1 .2 2.5.4 4.5l.2 4.1h1.4c.8 0 1.4-.1 1.8-.1H145.6c.4 0 .7.1 1 .4.3.3.5.6.5 1.1 0 .4-.1.8-.4 1.2-.3.3-.6.5-1.1.5l-.7.1c-.6 0-1.1.1-1.7.1-.8 0-1.4.1-1.8.1v4.6c0 1.6-.1 2.6-.1 2.9v.4c0 .4-.2.8-.5 1.1-.2.1-.6.2-1 .2zm-1.2-9.5v.1c0 1.6 0 3.1-.1 4.4 0 1.6-.1 2.6-.1 2.9v.5c0 .4.1.7.4.9.3.3.6.4.9.4.4 0 .7-.1 1-.4.3-.3.4-.6.4-.9v-.4c0-.3 0-1.3.1-2.9v-4.8h.1c.5 0 1.1 0 2-.1.6 0 1.1 0 1.7-.1l.7-.1c.4 0 .7-.1.9-.4.2-.3.3-.6.3-1s-.2-.7-.5-.9c-.3-.2-.6-.3-1-.3h-.7c-.4 0-1 .1-1.8.1h-1.7l-.2-4.3c-.2-2-.3-3.5-.4-4.5-.1-1-.3-2.6-.7-4.9-.3-2.2-.6-3.8-.8-4.8l-.2-1.5c-.1-.4-.3-.6-.6-.8-.3-.2-.7-.3-1-.2-.4.1-.6.2-.8.5-.2.3-.3.7-.2 1l.3 1.5c.2 1 .5 2.6.8 4.8.3 2.2.5 3.8.6 4.8.1 1 .2 2.5.4 4.4.1 1.4.2 2.8.2 4.1v.1h-.1l-3.3.3c-1.4.1-2.3.2-2.7.2-.4 0-1 .1-1.7.1s-1.3 0-1.8-.1h-.1v-.1c0-.2 0-.4.1-.6.2-.9.3-1.6.4-2.1 0-.5.1-1.3.2-2.4.1-1.1.2-2.3.2-3.4 0-1.2.1-2.5.1-4.1V7.6 4.8 2.1c0-.4-.1-.7-.4-.9-.3-.3-.6-.4-1-.4s-.7.1-.9.4c-.3.3-.4.6-.4 1v8.7c0 1.5 0 2.8-.1 3.9 0 1.1-.1 2.2-.2 3.4l-.2 2.3c0 .4-.1 1-.3 1.9-.2 1.2-.2 2.2.2 2.7.4.6 1.1 1 2.1 1.1.7.1 1.4.2 2.2.1.8 0 1.4 0 1.9-.1.5 0 1.4-.1 2.7-.2 1.1-.1 2.2-.2 3.1-.3z"/></g></g><g fill="#74B908"><path d="M145.8 186.8c-35.4 52.8 21.5 109.7 74.3 74.3 2.6-1.8 4.9-4 6.6-6.6 35.4-52.8-21.5-109.7-74.3-74.3-2.6 1.7-4.8 4-6.6 6.6z"/><path d="M186.3 272.2c-28.5 0-51.6-23.2-51.6-51.6 0-28.5 23.2-51.6 51.6-51.6 28.5 0 51.6 23.2 51.6 51.6 0 28.5-23.2 51.6-51.6 51.6zm0-102.9c-28.3 0-51.3 23-51.3 51.3 0 28.3 23 51.3 51.3 51.3 28.3 0 51.3-23 51.3-51.3-.1-28.3-23.1-51.3-51.3-51.3z"/></g><g fill="#74B908"><path d="M140.4 230.7L111.6 249l33.6-6.5z"/><path d="M110.7 249.3l29.8-18.9 4.9 12.2h-.2l-34.5 6.7zm29.6-18.3l-27.9 17.7 32.5-6.2-4.6-11.5z"/></g><path fill="#74B908" d="M64.9 298.7a12.61 12.61 0 1 1 .02-25.22 12.61 12.61 0 0 1-.02 25.22zm0-23.2c-5.9 0-10.6 4.8-10.6 10.6s4.8 10.6 10.6 10.6 10.6-4.8 10.6-10.6-4.8-10.6-10.6-10.6z"/><path fill="#999" d="M45.6 238.5a2.95 2.95 0 0 0 4.1 4.1c.3-.2.5-.4.7-.7 1.7-2.8-1.3-5.8-4.1-4.1-.3.2-.6.5-.7.7zM61.7 238.2a2.95 2.95 0 0 0 4.1 4.1c.3-.2.5-.4.7-.7 1.7-2.8-1.3-5.8-4.1-4.1-.3.1-.5.4-.7.7zM37.8 250c-1.1 0-2.3-.3-3.3-1-7.9-4.8-11.9-26.3-12.1-27.3-.1-.5.3-1 .8-1.1.5-.1 1 .3 1.1.8 0 .2 4 21.6 11.2 25.9 1.2.7 2.4.9 3.6.5 4-1.4 3.2-4.4 1.2-10.5-1.2-3.8-2.8-8.6-2.7-13.8 0-.5.5-1 1-1s1 .5 1 1c-.1 4.8 1.3 9.2 2.6 13.1 1.9 5.8 3.5 10.9-2.5 13-.7.3-1.3.4-1.9.4zM74.5 248.9h-.4c-6.4-.6-5.9-5.8-5.5-11.9.3-4 .7-8.6-.6-13.2-.1-.5.2-1.1.7-1.2.5-.1 1.1.2 1.2.7 1.3 4.9.9 9.9.6 13.9-.5 6.5-.5 9.4 3.7 9.8 1.2.1 2.3-.4 3.3-1.4 5.9-5.9 4.5-27.5 4.5-27.7 0-.5.4-1 .9-1s1 .4 1 .9c.1.9 1.5 22.7-5 29.2a5.76 5.76 0 0 1-4.4 1.9zM53.5 238.8c0 .7 6 .7 6 0 0-1.4-1.8-2.5-3-2.5s-3 1.1-3 2.5z"/><path fill="#999" d="M55.8 233.3h1.5v3.8h-1.5z"/><path fill="#999" d="M58.7 231.9c0-1.2-1-2.2-2.1-2.2-1.2 0-2.1 1-2.1 2.2s2.1 2.2 2.1 2.2 2.1-1 2.1-2.2zM72.7 69.7C69 62.6 61.1 58 52.7 58h-1.1c-4 .2-8 2.2-10.2 5.1-1.7 2.3-2.3 4.9-1.7 7.7.4 1.9 1.6 3.5 3.1 4.3.8.4 1.6.6 2.5.6 1.8 0 3.4-.9 4.9-1.8 1.5-.8 2.9-1.6 4.4-1.6.7 0 1.5.2 2.2.6 2.1 1.2 3.2 2.8 3.5 4.7.5 3.6-2.5 8-5.4 10.8-8.9 8.7-14.2 17-16.6 26v.1c-1.7 9.1.4 16.2 1.9 19.8.5-.2 1-.3 1.6-.3h.5c-1.4-3.2-3.7-10.2-2-19.2 2.3-8.6 7.4-16.6 16-25 1.6-1.5 6.7-7 6-12.5-.3-2.5-1.8-4.6-4.4-6.1-1-.6-2.1-.9-3.2-.9-2 0-3.7.9-5.3 1.9-1.4.8-2.7 1.5-4 1.5-.5 0-1.1-.1-1.6-.4-1-.5-1.8-1.7-2.1-3-.5-2.2 0-4.3 1.3-6.1 1.9-2.5 5.3-4.2 8.7-4.3h1c7.8 0 14.9 4.2 18.3 10.7 3 5.7 2.4 12.2-1.5 17.8-2.4 3.5-5.8 6.3-9 9-1 .9-2.1 1.7-3.1 2.6-7.2 6.3-11.1 14.5-11.8 24.2-.2 3.4.7 7.2 1.5 9.8.6-.2 1.2-.4 1.8-.4h.1c-.8-2.4-1.7-6.1-1.5-9.3.6-9.2 4.4-16.9 11.1-22.9 1-.9 2.1-1.8 3.1-2.6 3.3-2.8 6.8-5.6 9.3-9.3 4.4-6.2 5-13.5 1.7-19.8z"/><path fill="#FFF" d="M156.3 205.6c1 1.2 2.2 2.4 3.3 3.4.2.1.3.2.5.2.3 0 .7-.3.8-.6.1-.3 0-.5-.2-.7-1.5-1.3-2.8-2.8-4.1-4.3l-.2-.3 3.1-6.6c.2-.4.1-.6 0-.8-.2-.3-.5-.5-.8-.5-.2 0-.4.1-.5.4l-2.8 6.1-.6-.8c-.9-1.3-1.7-2.6-2.4-4-.1-.3-.3-.4-.6-.4s-.6.2-.8.5c-.1.2-.1.5 0 .8 1 1.8 2.1 3.6 3.3 5.3l.2.3-1.5 3.2c-.2.4-.1.6 0 .8.2.3.5.5.8.5.2 0 .4-.1.5-.4l1.3-2.7.7.6zM163.9 207.4c.4.1.8.2 1.2.2 2.1 0 3.8-1.6 4.1-3.9.2-1.3-.4-2.2-.8-2.8a4.9 4.9 0 0 0-3.5-1.5h-.9l-.5-3.7c0-.3-.4-.5-.8-.5h-.2c-.6.2-.6.7-.5 1l1.4 10.1v.1c0 .3-.1.8.5 1zm.9-6.5h.3c1.4 0 2.5 1.1 2.6 2.5.1 1.3-.9 2.3-2.2 2.5l-.6.1-.7-5 .6-.1zM175.1 202.2c0 1.8 1.4 3.2 3.1 3.2h.5c3-.4 3.4-4.2 3.4-5.8 0-1.5-.5-2.9-1.4-3.8-.7-.7-1.5-1-2.5-1-2.6.1-3.1 3-3.2 4.7v.6l-2.2-.2v-4.4c0-.7-.7-.7-.8-.7s-.8 0-.8.7v10.1c0 .7.7.7.8.7s.8 0 .8-.7v-4.1l2.3.2v.5zm2.3-5.3c.4-.5.8-.6 1.1-.6 1.2 0 2 1.8 2.1 2.5.1.7.3 3-.9 4.4-.4.4-.9.7-1.4.7-.5 0-1-.1-1.3-.6-.8-1.8-.6-5.3.4-6.4zM190.1 204.5c-2.5-.4-4-1.6-4.4-3.5-.2-.9 0-1.9.6-2.6.8-.9 2-1.5 3.3-1.4h.1c.6 0 .7-.5.7-.7 0-.3-.1-.8-.8-.9h-.3c-2.9 0-5.2 2.3-5.2 5.3s2.7 5 5.5 5.4h.2c.6 0 .9-.5.9-.9-.1-.4-.3-.6-.6-.7zM201.8 195.9c0-.1 0-.8-.7-.8l-8.1-.1c-.7 0-.7.6-.7.8 0 .1 0 .8.7.8h3.4v8.5c0 .7.7.7.8.7.1 0 .8 0 .8-.7v-8.5h3.2c.6.1.6-.5.6-.7zM207.2 195.3h-.6c-2.3 0-3.5 2.5-4.1 4.6 0 0-.1.6-.2.7-.2 1.1 0 2.1.6 2.9.7.9 1.7 1.5 3 1.6h.4c2.3 0 4.1-2.2 4.3-4.3.3-2.3-1-5.1-3.4-5.5zm-.7 8.2c-.2 0-.3.1-.5.1-.7 0-1.3-.3-1.8-.9-.4-.5-.6-1.2-.5-1.8l.3-.9c.3-1.1.9-3 2.5-3.2h.2c1.7 0 2.3 2.3 2.4 3.4.1 1.6-1 2.9-2.6 3.3zM218.5 206c.2 0 .4-.1.6-.2.1-.1.2-.3.2-.5l-.3-10.2c0-.7-.7-.8-.8-.8-.2 0-.4.1-.6.2-.1.1-.2.3-.2.5l.1 4.5-.7-.1h-.1l-2.6-.2-.1-3.8c0-.7-.7-.8-.8-.8-.2 0-.4.1-.6.2-.1.1-.2.3-.2.5l.2 9.7c0 .7.7.8.8.8.2 0 .4-.1.6-.2.1-.1.2-.3.2-.5l-.1-4.3 2.7.2h.1l.6-.1.1 4.5c.1.6.8.6.9.6zM205.7 222.7c-2.5-.4-4-1.6-4.4-3.5-.2-.9 0-1.9.6-2.6.8-.9 2-1.5 3.3-1.4h.1c.6 0 .7-.5.7-.7 0-.3-.1-.8-.8-.9h-.3c-2.9 0-5.2 2.3-5.2 5.3s2.7 5 5.5 5.4h.2c.6 0 .9-.5.9-.9-.1-.4-.2-.6-.6-.7zM187.3 225.1c.2 0 .4-.1.6-.2.1-.1.2-.3.2-.5l-.3-10.2c0-.7-.7-.8-.8-.8-.2 0-.4.1-.6.2-.1.1-.2.3-.2.5l.1 4.5-.7-.1h-.1l-2.6-.2-.1-3.8c0-.7-.7-.8-.8-.8-.2 0-.4.1-.6.2-.1.1-.2.3-.2.5l.2 9.7c0 .7.7.8.8.8.2 0 .4-.1.6-.2.1-.1.2-.3.2-.5l-.1-4.3 2.7.2h.1l.6-.1.1 4.5c.1.6.8.6.9.6zM167.5 225.5l4.6-11c.1-.3 0-.5 0-.5-.1-.2-.4-.3-.7-.3-.2 0-.6.1-.9.5l-1.9 4.6-3.1-4.4c-.2-.2-.4-.4-.7-.4-.3 0-.7.2-.8.5-.1.2-.1.4.1.6l3.8 5.3-2 4.7c-.1.3 0 .5 0 .5.1.2.4.3.7.3.2.2.6.1.9-.4zM199.1 224.7c.1-.2.2-.5 0-.8l-4.7-10c-.1-.3-.3-.4-.5-.4-.1 0-1.6.3-1.7.7l-2.2 10c-.1.3 0 .5.1.7.2.2.5.3.7.3.3 0 .6-.2.6-.5l.4-2h4.9l1 2.1c.1.3.3.4.5.4.4 0 .7-.2.9-.5zm-6.8-3.6l1.2-5.5 2.6 5.5h-3.8zM170.3 234h-.6c-2.3 0-3.5 2.5-4.1 4.6 0 0-.2.5-.2.6-.2 1.1 0 2.2.7 3.1.7.9 1.7 1.5 3 1.6h.4c2.3 0 4.1-2.2 4.3-4.3.2-2.4-1.1-5.2-3.5-5.6zm-.7 8.2c-.2 0-.3.1-.5.1-.7 0-1.3-.3-1.8-.9-.4-.5-.6-1.2-.5-1.8l.3-.9c.3-1.1.9-3 2.5-3.2h.2c1.7 0 2.3 2.3 2.4 3.4 0 1.6-1 2.9-2.6 3.3zM194.4 243.8c.1-.2.2-.5 0-.8l-4.3-9.3c-.1-.2-.3-.4-.5-.4H189.3c-.2 0-.6.1-.7.5l-2.6 9c-.1.2 0 .5.1.6.2.2.4.3.7.3.2 0 .6-.1.7-.5l2-7.1 3.6 7.7c.1.3.3.4.5.4.3.1.6-.1.8-.4zM154.1 244.9c.1-.1.1-.3.1-.5l-1-8.2c0-.2 0-1-1-1l-6.2-.2c-.2 0-.4.1-.5.2-.6.4-.4 1.3-.4 1.5l1.4 8.1c.1.3.2.5.6.5.3 0 .6-.1.8-.4.2-.2.2-.4.2-.7l-1.3-7.7 5 .1.9 7.6c.1.5.5.8.9.8.2.1.4 0 .5-.1zM162.6 236.3c-1.4-1.7-4.1-2.4-6.2-2.5h-.1c-1.1-.1-1.1.9-1 1.2l1.9 16.9c.1.6.6.8.9.8.2 0 .4-.1.5-.2.1-.1.1-.3.1-.5l-1-9 .7.1c.2 0 .5.1.7.1 2.2 0 4-1.6 4.3-3.8.3-1.1 0-2.2-.8-3.1zm-2 5.1c-.3.2-.7.3-1.2.3s-1.1-.2-1.6-.5l-.2-.1-.6-5.7.7.1c2.3.4 3.8 1.4 4.2 3 .4 1.2-.4 2.3-1.3 2.9zM176.6 234.9l.2 8c0 .7.6.7.8.8h.4c.6.1 1.4.2 2.1.2.9 0 1.6-.2 2.3-.5a3 3 0 0 0 1.6-2.8c-.2-2.9-3.3-3.4-5.1-3.4h-.5l-.1-2.2h4.1c.7 0 .7-.7.7-.8s0-.8-.7-.8h-5c-.3 0-.5.1-.6.3-.2.2-.2.6-.1.8v.2c-.1.1-.1.2-.1.2zm2.2 3.8h.2c1 0 2.3.1 3.1 1.4.4.6.3 1 .1 1.3-.3.6-1.1.8-2.5.8h-1.4l-.1-3.5h.6zM197.6 244l5.2-.3c.6 0 .8-.6.8-.9 0-.2-.1-.7-.6-.7h-.1l-4.6.3-.4-3.1h1.6c.4 0 .8-.4.8-.8s-.4-.8-.8-.8h-1.8l-.4-3.3 3.6-.2c.6 0 .8-.6.8-.9 0-.2-.1-.7-.7-.7h-.1l-4.5.2c-.1 0-.2 0-.3.1h-.1c-.5.1-.4.5-.4.6l1.2 9c0 .1.1.3.1.4l.1.1v.2c-.1.2-.1.8.6.8zM215.5 242.2c.1.5.5.5.7.5.3 0 .6-.1.7-.3.1-.2.1-.4.1-.6l-3.1-10.5c-.1-.5-.5-.5-.7-.5-.3 0-.6.1-.7.3l-2.2 4.6-3.4-4.3c-.1-.2-.3-.2-.4-.2-.1 0-.3 0-.4.1h-.2c-.2 0-.6.2-.6.7l.2 10.4c0 .7.7.8.8.8.2 0 .4-.1.6-.2.1-.1.2-.3.2-.5l-.2-8.4 2.3 3c.6.7.8.7.8.7.7.2 1-.4 1.1-.6l1.9-3 2.5 8zM220.1 242.1c.4.2.9.3 1.4.3 1.8 0 3.3-1.3 3.7-3a3.8 3.8 0 0 0-3.6-4.5h-.5v-3.1c0-.7-.7-.8-.8-.8-.2 0-.5.1-.6.2-.1.1-.2.3-.2.5l.1 9.2V241.2c0 .2 0 .7.5.9zm1.6-5.6c1.2.2 2 1.1 2 2.3 0 1.1-.8 1.8-2 1.9h-.6l-.1-4.4.7.2zM227.9 243c.1 0 .8 0 .8-.8l.2-10.2c0-.2-.1-.4-.2-.5-.1-.1-.4-.2-.6-.2-.1 0-.8 0-.8.8l-.2 10.2c0 .2.1.4.2.5.2.1.4.2.6.2z"/><g><path fill="#999" d="M61.9 205.1c-.3 0-.7 0-1-.1-3-.3-5.8-2.2-6.9-4.6-1.9-4.2-.7-8.4.4-12.5.3-1 .5-2 .8-3 .4-1.6.5-2.9.5-4.1 0-.9 0-2.8-.6-3.5-.2-.2-.3-.2-.3-.2-.1 0-.4.2-.5.4-.4.7-.5 1.5-.5 2.3v.1c-1.5 10.3-8.4 17-18.3 18-9.2.9-20.5-3.9-24.3-14.7-.2-.5.1-1.1.6-1.2.5-.2 1.1.1 1.2.6 3.5 9.9 13.9 14.2 22.3 13.4 9-.9 15.2-7 16.6-16.3.1-1 .2-2.1.7-3 .4-.8 1.2-1.3 2-1.4.7-.1 1.5.2 2 .8 1.1 1.2 1.1 3.1 1.1 4.8 0 1.3-.2 2.7-.6 4.5-.2 1-.5 2-.8 3-1 3.8-2.1 7.7-.5 11.2.8 1.8 3 3.2 5.3 3.5 1.9.2 3.6-.4 4.5-1.6 1.5-2 1-4.9.3-7.9-1.5-6-1-12-.6-17.8.1-1.9.3-3.9.4-5.8.1-3.5-.1-9.5-3.6-10.5-1.6-.5-3.3.8-4.8 1.9l-.4.3c-1.3 1-2.6 1.4-3.8 1.2-2.1-.4-3.2-2.7-4.3-4.6-.3-.6-.7-1.2-1-1.7-.9-1.3-1.9-2.5-3.1-3.5-1.3-1.1-2.5-1.9-3.7-2.3-.5-.2-.8-.8-.6-1.3.2-.5.8-.8 1.3-.6 1.4.5 2.8 1.4 4.3 2.7 1.3 1.1 2.4 2.4 3.4 3.9.4.6.7 1.2 1.1 1.9.8 1.6 1.8 3.4 3 3.6.6.1 1.3-.1 2.2-.8l.3-.3c1.6-1.3 3.9-3 6.5-2.3 3.6 1 5.4 5.3 5.1 12.5-.1 2-.2 4-.4 5.9-.5 5.9-.9 11.5.5 17.2.9 3.4 1.4 6.9-.6 9.5-1.1 1.6-3 2.4-5.2 2.4z"/></g></svg>