<svg xmlns="http://www.w3.org/2000/svg" viewBox="0 0 24 24">
    <path d="M5.93415 13.1975C5.42331 14.1514 6.00331 14.6074 7.32665 15.3864C8.45165 16.0467 10.0058 16.2881 11.0041 16.3847C10.595 16.7584 12.47 15.0452 7.06998 19.9797C5.92498 21.0223 7.76831 22.6951 8.91248 21.6746L12.01 18.8365C13.1958 19.9203 14.3325 20.959 15.1075 21.6786C16.2525 22.703 18.095 21.0445 16.9625 19.9836C16.8775 19.9068 12.765 16.1591 13.0158 16.3887C14.0266 16.2921 15.5575 16.0364 16.6691 15.3904L16.6683 15.3896C17.9916 14.6066 18.5716 14.1514 18.0683 13.1975C17.7641 12.656 16.9441 12.2031 15.8525 12.9861C15.8525 12.9861 14.3783 14.0588 12.0008 14.0588C9.62248 14.0588 8.14915 12.9861 8.14915 12.9861C7.05831 12.1992 6.23498 12.656 5.93415 13.1975V13.1975Z" />
    <path d="M11.9991 12.6124C14.8974 12.6124 17.2641 10.4607 17.2641 7.81175C17.2641 5.15175 14.8974 3 11.9991 3C9.09994 3 6.73328 5.15175 6.73328 7.81175C6.73328 10.4607 9.09994 12.6124 11.9991 12.6124ZM11.9991 5.43754C13.4233 5.43754 14.5849 6.49917 14.5849 7.81175C14.5849 9.11325 13.4233 10.1749 11.9991 10.1749C10.5749 10.1749 9.41328 9.11325 9.41328 7.81175C9.41244 6.49838 10.5741 5.43754 11.9991 5.43754V5.43754Z" />
</svg>