<svg xmlns="http://www.w3.org/2000/svg" viewBox="0 0 24 24">
    <path d="M20.9695 10.75C21.3059 10.3069 21.5729 9.9513 21.77 9.68305C23.1902 7.75868 23.8057 6.52938 23.6171 5.99342L23.543 5.8679C23.4939 5.79251 23.3663 5.72327 23.1613 5.6606C22.956 5.59798 22.6934 5.58797 22.3734 5.62931L18.8271 5.65481C18.745 5.64648 18.6628 5.64842 18.5807 5.6606C18.4986 5.67333 18.4454 5.6861 18.4206 5.69828C18.3958 5.71105 18.3754 5.72128 18.3591 5.72961L18.31 5.76729C18.2689 5.79224 18.2238 5.8363 18.1746 5.89924C18.1253 5.96213 18.084 6.03504 18.0514 6.11899C17.6656 7.1313 17.2265 8.07271 16.7339 8.94288C16.4301 9.46167 16.1508 9.91173 15.8967 10.2919C15.6421 10.673 15.4287 10.9532 15.2563 11.1327C15.084 11.3126 14.9278 11.4572 14.7884 11.5656C14.6487 11.6748 14.5421 11.7205 14.4684 11.7039C14.3944 11.6873 14.3246 11.6706 14.259 11.6534C14.1441 11.5784 14.0516 11.4761 13.982 11.3461C13.9122 11.2167 13.8651 11.0535 13.8403 10.8567C13.8158 10.6602 13.8012 10.4907 13.7974 10.3482C13.793 10.2061 13.7952 10.0054 13.8036 9.74572C13.8118 9.48631 13.8158 9.31093 13.8158 9.21865C13.8158 8.90104 13.8221 8.55577 13.8344 8.18333C13.8466 7.81116 13.857 7.51601 13.8651 7.29844C13.8733 7.08118 13.8773 6.85087 13.8773 6.60812C13.8773 6.36591 13.8629 6.17523 13.834 6.03698C13.8052 5.89924 13.762 5.76538 13.7049 5.63543C13.6473 5.50601 13.5632 5.4054 13.4523 5.33448C13.3414 5.26326 13.204 5.20702 13.0399 5.16486C12.6045 5.06424 12.0504 5.0105 11.3775 5.00167C9.85053 4.98559 8.86953 5.08589 8.4345 5.30315C8.26213 5.39543 8.10605 5.52068 7.9666 5.67976C7.8187 5.86405 7.79831 5.96462 7.90515 5.9807C8.39781 6.05609 8.74643 6.23622 8.95168 6.52054L9.02565 6.67102C9.08301 6.78019 9.14041 6.97255 9.19803 7.24854C9.25543 7.52457 9.29239 7.82995 9.30896 8.16472C9.35001 8.77548 9.35001 9.29816 9.30896 9.73354C9.26791 10.1689 9.22904 10.5075 9.19208 10.7498C9.15507 10.9925 9.09962 11.189 9.02592 11.3395C8.95195 11.4905 8.90277 11.5825 8.87802 11.616C8.85327 11.6492 8.83288 11.6703 8.81658 11.6787C8.70973 11.7202 8.59906 11.7413 8.48408 11.7413C8.36906 11.7413 8.22956 11.6825 8.06536 11.5653C7.90111 11.4486 7.73064 11.2873 7.55445 11.0823C7.37771 10.8775 7.17895 10.5907 6.95708 10.2224C6.73547 9.85463 6.50543 9.41924 6.26752 8.91739L6.07067 8.55323C5.94751 8.31935 5.77918 7.9782 5.56575 7.53064C5.35232 7.08308 5.16333 6.65023 4.99939 6.23151C4.9336 6.05609 4.83515 5.92224 4.70386 5.82996L4.64242 5.79228C4.60137 5.759 4.53557 5.72327 4.4453 5.68582C4.35475 5.64815 4.2607 5.62098 4.16198 5.60409L0.78805 5.62904C0.443295 5.62904 0.209474 5.70887 0.086322 5.8679L0.0370967 5.94302C0.0122175 5.98514 0 6.0522 0 6.14394C0 6.23622 0.0247459 6.34902 0.0739713 6.4826C0.566624 7.66259 1.10228 8.80047 1.68086 9.8962C2.25974 10.9925 2.76248 11.8754 3.18934 12.5447C3.6162 13.2145 4.05123 13.8457 4.4947 14.4399C4.93817 15.034 5.23152 15.4145 5.37507 15.5816C5.51861 15.7493 5.63146 15.8749 5.7136 15.9582L6.0214 16.2597C6.21825 16.4604 6.50783 16.7009 6.88959 16.9814C7.27131 17.2618 7.69386 17.5378 8.15799 17.8094C8.62159 18.0816 9.16155 18.3029 9.77709 18.4748C10.3927 18.6466 10.9919 18.7155 11.5748 18.6818H12.9909C13.2783 18.6568 13.4957 18.5651 13.6435 18.4057L13.6926 18.3431C13.7252 18.2932 13.7563 18.2156 13.785 18.1111C13.8136 18.0067 13.8284 17.8914 13.8284 17.7661C13.8199 17.4065 13.8468 17.0817 13.9083 16.7934C13.9697 16.5047 14.0396 16.2874 14.1177 16.1406C14.1957 15.9945 14.2837 15.8709 14.3824 15.7703C14.4809 15.6697 14.5505 15.6096 14.5918 15.5885C14.6329 15.568 14.6658 15.5533 14.6903 15.5444C14.8871 15.4776 15.119 15.5425 15.386 15.739C15.6528 15.936 15.9032 16.1782 16.1373 16.467C16.3711 16.7557 16.6522 17.0797 16.9807 17.4397C17.3089 17.7993 17.5962 18.067 17.8426 18.2427L18.0889 18.3938C18.2531 18.4938 18.4663 18.5858 18.7292 18.6698C18.9919 18.7532 19.2219 18.7743 19.4187 18.7324L22.5711 18.682C22.8829 18.682 23.1252 18.6299 23.2976 18.5251C23.47 18.4212 23.5725 18.3054 23.6054 18.1801C23.638 18.0546 23.6402 17.913 23.6117 17.7536C23.5829 17.5948 23.5541 17.484 23.5255 17.4214C23.4967 17.3587 23.47 17.3061 23.4453 17.2645C23.0347 16.5116 22.2508 15.5868 21.0934 14.4908L21.0686 14.4658L21.0564 14.4531L21.0442 14.4409H21.0318C20.5063 13.9304 20.174 13.5873 20.0345 13.4114C19.7801 13.0772 19.7224 12.7382 19.8622 12.3952C19.96 12.1351 20.3293 11.5869 20.9695 10.75Z" />
</svg>