<svg xmlns="http://www.w3.org/2000/svg"  viewBox="0 0 19 19">
    <path fill-rule="evenodd" clip-rule="evenodd" d="M9.5 19C14.7467 19 19 14.7467 19 9.5C19 4.25329 14.7467 0 9.5 0C4.25329 0 0 4.25329 0 9.5C0 14.7467 4.25329 19 9.5 19ZM10.0768 6.42304C10.0768 6.10441 9.81854 5.84612 9.49992 5.84612C9.18129 5.84612 8.92299 6.10441 8.92299 6.42304V8.92304H6.42299C6.10437 8.92304 5.84607 9.18134 5.84607 9.49996C5.84607 9.81859 6.10437 10.0769 6.42299 10.0769H8.92299V12.5769C8.92299 12.8955 9.18129 13.1538 9.49992 13.1538C9.81854 13.1538 10.0768 12.8955 10.0768 12.5769V10.0769H12.5768C12.8955 10.0769 13.1538 9.81859 13.1538 9.49996C13.1538 9.18134 12.8955 8.92304 12.5768 8.92304H10.0768V6.42304Z"/>
</svg>