<svg xmlns="http://www.w3.org/2000/svg" viewBox="0 0 19 19">
    <path fill-rule="evenodd" clip-rule="evenodd" d="M9.5 19C14.7467 19 19 14.7467 19 9.5C19 4.25329 14.7467 0 9.5 0C4.25329 0 0 4.25329 0 9.5C0 14.7467 4.25329 19 9.5 19ZM8.92995 12.4229L13.6782 7.79113C14.018 7.45959 14.018 6.92328 13.6782 6.582C13.3383 6.25046 12.7785 6.25046 12.4386 6.582L8.31019 10.6092L6.56084 8.90276C6.22097 8.57122 5.66118 8.57122 5.32131 8.90276C4.98144 9.23429 4.98144 9.7706 5.32131 10.1119L7.70042 12.4229C7.87035 12.5887 8.09027 12.6667 8.31019 12.6667C8.5401 12.6667 8.76002 12.5887 8.92995 12.4229Z"/>
</svg>