<svg xmlns="http://www.w3.org/2000/svg" viewBox="0 0 19 19">
    <path fill-rule="evenodd" clip-rule="evenodd" d="M9.5 19C14.7467 19 19 14.7467 19 9.5C19 4.25329 14.7467 0 9.5 0C4.25329 0 0 4.25329 0 9.5C0 14.7467 4.25329 19 9.5 19ZM9.18094 6.46805C9.27364 6.38518 9.3851 6.34612 9.49565 6.34612C9.61969 6.34612 9.73491 6.38685 9.83646 6.47211C9.85639 6.49401 9.88139 6.52085 9.90608 6.54737L9.90631 6.54761L9.9438 6.58794C10.0004 6.64905 10.0638 6.71849 10.1193 6.78337L10.125 6.78999L10.1308 6.79641C10.4835 7.18072 10.9766 7.91034 11.4382 8.70934C11.8984 9.50619 12.2964 10.3184 12.4758 10.8526L12.4757 10.8526L12.4786 10.8609C12.5046 10.9341 12.5492 11.0755 12.5879 11.2256C12.6275 11.3795 12.6501 11.5018 12.6537 11.5651C12.6525 11.7199 12.6232 11.8642 12.5655 12.0024C12.4849 12.1659 12.3698 12.2793 12.2578 12.3373L12.2532 12.3392C12.2472 12.3416 12.2393 12.3445 12.2293 12.3481C12.2091 12.3553 12.184 12.3636 12.1546 12.3727C12.0957 12.391 12.0274 12.4102 11.9606 12.4281C11.8943 12.4458 11.8322 12.4614 11.7867 12.4725L11.745 12.4824L11.7164 12.4887C11.2446 12.5911 10.4349 12.6538 9.50479 12.6538C8.64417 12.6538 7.87265 12.5946 7.37666 12.5109C7.36668 12.5082 7.35757 12.5059 7.35087 12.5042C7.3295 12.4988 7.30138 12.4923 7.27359 12.4857L7.2713 12.4852C7.21079 12.471 7.13429 12.4531 7.05274 12.432C6.97046 12.4107 6.88916 12.3877 6.82015 12.3646C6.78585 12.3531 6.75806 12.3427 6.73686 12.3338C6.71823 12.326 6.71025 12.3216 6.70991 12.3215C6.50458 12.1947 6.34607 11.9217 6.34607 11.5962V11.5642C6.3477 11.5316 6.35619 11.4701 6.37597 11.3802C6.39571 11.2904 6.42231 11.1917 6.45018 11.0977C6.46099 11.0613 6.47179 11.0263 6.48215 10.9936L6.56626 10.757C6.74721 10.2479 7.13229 9.46018 7.5797 8.68252C8.0292 7.90122 8.51263 7.18082 8.87708 6.78752L8.88481 6.77918L8.89206 6.7706L8.89207 6.77059L8.8921 6.77056L8.89212 6.77053L8.89215 6.7705L8.89226 6.77036L8.89352 6.76888L8.89923 6.76219L8.92194 6.73591C8.94162 6.7133 8.96903 6.68221 8.99992 6.64833C9.06805 6.57358 9.13114 6.50958 9.16549 6.4813L9.17335 6.47483L9.18094 6.46805ZM10.5238 5.74486L10.1887 6.11593L10.5686 5.79091L10.5764 5.79957L10.6011 5.82624L10.6774 5.90839C10.7346 5.97012 10.8064 6.04857 10.8736 6.12675C11.3012 6.59483 11.8354 7.39783 12.3041 8.20915C12.7751 9.02462 13.2109 9.90228 13.4224 10.5303C13.459 10.634 13.5114 10.8018 13.5563 10.9763C13.5992 11.1429 13.6471 11.3594 13.6534 11.537L13.6538 11.5459V11.5549C13.6538 11.8494 13.5968 12.1343 13.4807 12.4057L13.4765 12.4156L13.4719 12.4253C13.3062 12.7708 13.0365 13.0683 12.6918 13.2384L12.6852 13.2416L12.6786 13.2446C12.5532 13.3021 12.3508 13.3589 12.2187 13.3942C12.1442 13.4141 12.0748 13.4316 12.023 13.4442C11.9972 13.4504 11.9748 13.4557 11.9578 13.4596L11.9332 13.4651L11.9206 13.4676C11.3434 13.5918 10.4532 13.6538 9.50479 13.6538C8.59015 13.6538 7.74204 13.5903 7.17199 13.4904L6.9856 13.4577L6.97333 13.4424C6.92322 13.4304 6.86434 13.4161 6.80232 13.4001C6.70914 13.376 6.60276 13.3464 6.50246 13.3128C6.41034 13.282 6.29065 13.2372 6.18958 13.1755L6.18881 13.175C5.64954 12.8443 5.34607 12.2252 5.34607 11.5962V11.5549V11.5475L5.34628 11.5402C5.35301 11.3113 5.43257 11.0119 5.49148 10.8133C5.52381 10.7043 5.55622 10.6055 5.58169 10.5323C5.59428 10.4961 5.60612 10.4635 5.61609 10.4377C5.62064 10.426 5.62698 10.41 5.63408 10.394C5.8472 9.8046 6.25974 8.97152 6.71291 8.18383C7.16874 7.39154 7.69415 6.59536 8.1363 6.11571L8.13978 6.11163L8.16767 6.07935C8.19098 6.05257 8.22359 6.01558 8.26084 5.97471C8.32704 5.90208 8.42862 5.79408 8.52181 5.71599C8.80057 5.47002 9.14766 5.34612 9.49565 5.34612C9.87981 5.34612 10.2385 5.48717 10.5238 5.74486Z"/>
</svg>