<svg xmlns="http://www.w3.org/2000/svg" id="ico-tracking-box" viewBox="0 0 19 19">
    <path fill-rule="evenodd" clip-rule="evenodd" d="M9.5 19C14.7467 19 19 14.7467 19 9.5C19 4.25329 14.7467 0 9.5 0C4.25329 0 0 4.25329 0 9.5C0 14.7467 4.25329 19 9.5 19ZM11.9507 5.95876L13.0465 7.11184C13.0806 7.14748 13.1077 7.18991 13.1261 7.23665C13.1446 7.2834 13.154 7.33353 13.1539 7.38415V12.3845C13.1539 12.8088 12.8261 13.1538 12.4231 13.1538H6.57696C6.17394 13.1538 5.84619 12.8088 5.84619 12.3845V7.38415C5.84608 7.33353 5.85552 7.2834 5.87396 7.23665C5.8924 7.18991 5.91948 7.14748 5.95362 7.11184L7.0494 5.95876C7.08328 5.92298 7.12354 5.8946 7.16787 5.87526C7.21221 5.85592 7.25974 5.846 7.30773 5.84607H11.6923C11.7403 5.846 11.7879 5.85592 11.8322 5.87526C11.8765 5.8946 11.9168 5.92298 11.9507 5.95876ZM11.5411 6.6153H7.459L7.09398 6.99953H11.9061L11.5411 6.6153ZM6.57696 7.76876V12.3845H12.4238L12.4231 7.76876H6.57696Z"/>
</svg>